# This file uses centimeters as units for non-parametric coordinates.

mtllib Bilboard_New.mtl
g default
v -1.589139 1.300604 0.044022
v -1.589139 1.300604 0.263516
v -1.589139 2.300604 0.044022
v -1.589139 2.300604 0.263516
v 1.896677 2.300604 0.044022
v 1.896677 2.300604 0.263516
v 1.896677 1.300604 0.044022
v 1.896677 1.300604 0.263516
v 1.809680 1.383938 0.263516
v -1.502142 1.383938 0.263516
v 1.809680 2.217271 0.263516
v -1.502142 2.217271 0.263516
v 1.809680 1.383938 0.209109
v -1.502142 1.383938 0.209109
v 1.809680 2.217271 0.209109
v -1.502142 2.217271 0.209109
v -1.896677 -0.099618 0.097609
v -1.896677 -0.099618 0.209929
v -1.896677 4.866466 0.097609
v -1.896677 4.866466 0.209929
v -1.784356 4.866466 0.097609
v -1.784356 4.866466 0.209929
v -1.784356 -0.099618 0.097609
v -1.784356 -0.099618 0.209929
v -1.589139 0.137091 0.044022
v -1.589139 0.137091 0.263516
v -1.589139 1.137091 0.044022
v -1.589139 1.137091 0.263516
v 1.896677 1.137091 0.044022
v 1.896677 1.137091 0.263516
v 1.896677 0.137091 0.044022
v 1.896677 0.137091 0.263516
v 1.809680 0.220424 0.263516
v -1.502142 0.220424 0.263516
v 1.809680 1.053757 0.263516
v -1.502142 1.053757 0.263516
v 1.809680 0.220424 0.209109
v -1.502142 0.220424 0.209109
v 1.809680 1.053757 0.209109
v -1.502142 1.053757 0.209109
v -1.589139 3.707026 0.044022
v -1.589139 3.707026 0.263516
v -1.589139 4.707026 0.044022
v -1.589139 4.707026 0.263516
v 1.896677 4.707026 0.044022
v 1.896677 4.707026 0.263516
v 1.896677 3.707026 0.044022
v 1.896677 3.707026 0.263516
v 1.809680 3.790359 0.263516
v -1.502142 3.790359 0.263516
v 1.809680 4.623693 0.263516
v -1.502142 4.623693 0.263516
v 1.809680 3.790359 0.209109
v -1.502142 3.790359 0.209109
v 1.809680 4.623693 0.209109
v -1.502142 4.623693 0.209109
v -1.589139 2.527110 0.044022
v -1.589139 2.527110 0.263516
v -1.589139 3.527110 0.044022
v -1.589139 3.527110 0.263516
v 1.896677 3.527110 0.044022
v 1.896677 3.527110 0.263516
v 1.896677 2.527110 0.044022
v 1.896677 2.527110 0.263516
v 1.809680 2.610443 0.263516
v -1.502142 2.610443 0.263516
v 1.809680 3.443776 0.263516
v -1.502142 3.443776 0.263516
v 1.809680 2.610443 0.209109
v -1.502142 2.610443 0.209109
v 1.809680 3.443776 0.209109
v -1.502142 3.443776 0.209109
v -1.793233 2.120208 0.113686
v -1.793233 2.120208 0.193857
v -1.793233 2.200379 0.113686
v -1.793233 2.200379 0.193857
v -1.582380 2.200379 0.113686
v -1.582380 2.200379 0.193857
v -1.582380 2.120208 0.113686
v -1.582380 2.120208 0.193857
v -1.793233 1.398694 0.113686
v -1.793233 1.398694 0.193857
v -1.793233 1.478865 0.113686
v -1.793233 1.478865 0.193857
v -1.582380 1.478865 0.113686
v -1.582380 1.478865 0.193857
v -1.582380 1.398694 0.113686
v -1.582380 1.398694 0.193857
v -1.793233 3.344010 0.113686
v -1.793233 3.344010 0.193857
v -1.793233 3.424181 0.113686
v -1.793233 3.424181 0.193857
v -1.582380 3.424181 0.113686
v -1.582380 3.424181 0.193857
v -1.582380 3.344010 0.113686
v -1.582380 3.344010 0.193857
v -1.793233 2.622496 0.113686
v -1.793233 2.622496 0.193857
v -1.793233 2.702667 0.113686
v -1.793233 2.702667 0.193857
v -1.582380 2.702667 0.113686
v -1.582380 2.702667 0.193857
v -1.582380 2.622496 0.113686
v -1.582380 2.622496 0.193857
v -1.793233 4.522048 0.113686
v -1.793233 4.522048 0.193857
v -1.793233 4.602219 0.113686
v -1.793233 4.602219 0.193857
v -1.582380 4.602219 0.113686
v -1.582380 4.602219 0.193857
v -1.582380 4.522048 0.113686
v -1.582380 4.522048 0.193857
v -1.793233 3.800534 0.113686
v -1.793233 3.800534 0.193857
v -1.793233 3.880705 0.113686
v -1.793233 3.880705 0.193857
v -1.582380 3.880705 0.113686
v -1.582380 3.880705 0.193857
v -1.582380 3.800534 0.113686
v -1.582380 3.800534 0.193857
v -1.793233 0.951030 0.113686
v -1.793233 0.951030 0.193857
v -1.793233 1.031201 0.113686
v -1.793233 1.031201 0.193857
v -1.582380 1.031201 0.113686
v -1.582380 1.031201 0.193857
v -1.582380 0.951030 0.113686
v -1.582380 0.951030 0.193857
v -1.793233 0.229516 0.113686
v -1.793233 0.229516 0.193857
v -1.793233 0.309688 0.113686
v -1.793233 0.309688 0.193857
v -1.582380 0.309688 0.113686
v -1.582380 0.309688 0.193857
v -1.582380 0.229516 0.113686
v -1.582380 0.229516 0.193857
vt 0.497832 0.881251
vt 0.901775 0.881251
vt 0.901775 0.982893
vt 0.497832 0.982893
vt 0.455197 0.980254
vt 0.029038 0.980254
vt 0.029038 0.857997
vt 0.483834 0.831245
vt 0.029038 0.699823
vt 0.455197 0.699823
vt 0.444185 0.710003
vt 0.039673 0.710003
vt 0.455197 0.831245
vt 0.444185 0.821036
vt 0.029038 0.831245
vt 0.039673 0.821036
vt 0.455197 0.672987
vt 0.440488 0.715214
vt 0.043369 0.715214
vt 0.043369 0.815826
vt 0.440488 0.815826
vt 0.483834 0.699823
vt 0.000000 0.699823
vt 0.455197 0.857997
vt 0.000000 0.831245
vt 0.029038 0.672987
vt 0.047004 0.031500
vt 0.060526 0.031500
vt 0.060526 0.640018
vt 0.047004 0.640018
vt 0.060526 0.653540
vt 0.047004 0.653540
vt 0.087572 0.640018
vt 0.074049 0.640018
vt 0.074049 0.031500
vt 0.087572 0.031500
vt 0.074049 0.017978
vt 0.087572 0.017978
vt 0.033481 0.031500
vt 0.033481 0.640018
vt 0.000000 0.699823
vt 0.029038 0.699823
vt 0.029038 0.831245
vt 0.000000 0.831245
vt 0.029038 0.857996
vt 0.455197 0.831245
vt 0.455197 0.857996
vt 0.483834 0.831245
vt 0.455197 0.699823
vt 0.483834 0.699823
vt 0.455197 0.672986
vt 0.029038 0.672986
vt 0.497832 0.779609
vt 0.901776 0.779609
vt 0.901776 0.881251
vt 0.497832 0.881251
vt 0.455197 0.980254
vt 0.029038 0.980254
vt 0.444185 0.710003
vt 0.039673 0.710003
vt 0.444185 0.821036
vt 0.039673 0.821036
vt 0.440488 0.715214
vt 0.043369 0.715214
vt 0.440488 0.815826
vt 0.043369 0.815826
vt 0.000000 0.699823
vt 0.029038 0.699823
vt 0.029038 0.831245
vt 0.000000 0.831245
vt 0.029038 0.857997
vt 0.455197 0.831245
vt 0.455197 0.857997
vt 0.483834 0.831245
vt 0.455197 0.699823
vt 0.483834 0.699823
vt 0.455197 0.672987
vt 0.029038 0.672987
vt 0.497832 0.576326
vt 0.901776 0.576326
vt 0.901776 0.677968
vt 0.497832 0.677968
vt 0.455197 0.980254
vt 0.029038 0.980254
vt 0.444185 0.710003
vt 0.039673 0.710003
vt 0.444185 0.821036
vt 0.039673 0.821036
vt 0.440488 0.715214
vt 0.043369 0.715214
vt 0.440488 0.815826
vt 0.043369 0.815826
vt -0.000000 0.699823
vt 0.029038 0.699823
vt 0.029038 0.831245
vt -0.000000 0.831245
vt 0.029038 0.857996
vt 0.455197 0.831245
vt 0.455197 0.857996
vt 0.483834 0.831245
vt 0.455197 0.699823
vt 0.483834 0.699823
vt 0.455197 0.672986
vt 0.029038 0.672986
vt 0.497832 0.677968
vt 0.901776 0.677968
vt 0.901776 0.779609
vt 0.497832 0.779609
vt 0.455197 0.980254
vt 0.029038 0.980254
vt 0.444185 0.710003
vt 0.039673 0.710003
vt 0.444185 0.821036
vt 0.039673 0.821036
vt 0.440488 0.715214
vt 0.043369 0.715214
vt 0.440488 0.815826
vt 0.043369 0.815826
vt 0.099143 0.633327
vt 0.099143 0.623590
vt 0.124751 0.623590
vt 0.124751 0.633327
vt 0.124751 0.643064
vt 0.124751 0.652800
vt 0.099143 0.652800
vt 0.099143 0.643064
vt 0.099143 0.613854
vt 0.124751 0.613854
vt 0.099143 0.633327
vt 0.099143 0.623590
vt 0.124751 0.623590
vt 0.124751 0.633327
vt 0.124751 0.643064
vt 0.124751 0.652800
vt 0.099143 0.652800
vt 0.099143 0.643064
vt 0.099143 0.613854
vt 0.124751 0.613854
vt 0.099143 0.633327
vt 0.099143 0.623590
vt 0.124751 0.623590
vt 0.124751 0.633327
vt 0.124751 0.643064
vt 0.124751 0.652800
vt 0.099143 0.652800
vt 0.099143 0.643064
vt 0.099143 0.613854
vt 0.124751 0.613854
vt 0.099143 0.633327
vt 0.099143 0.623590
vt 0.124751 0.623590
vt 0.124751 0.633327
vt 0.124751 0.643064
vt 0.124751 0.652800
vt 0.099143 0.652800
vt 0.099143 0.643064
vt 0.099143 0.613854
vt 0.124751 0.613854
vt 0.099143 0.633327
vt 0.099143 0.623590
vt 0.124751 0.623590
vt 0.124751 0.633327
vt 0.124751 0.643064
vt 0.124751 0.652800
vt 0.099143 0.652800
vt 0.099143 0.643064
vt 0.099143 0.613854
vt 0.124751 0.613854
vt 0.099143 0.633327
vt 0.099143 0.623590
vt 0.124751 0.623590
vt 0.124751 0.633327
vt 0.124751 0.643064
vt 0.124751 0.652800
vt 0.099143 0.652800
vt 0.099143 0.643064
vt 0.099143 0.613854
vt 0.124751 0.613854
vt 0.099143 0.633327
vt 0.099143 0.623590
vt 0.124751 0.623590
vt 0.124751 0.633327
vt 0.124751 0.643064
vt 0.124751 0.652800
vt 0.099143 0.652800
vt 0.099143 0.643064
vt 0.099143 0.613854
vt 0.124751 0.613854
vt 0.099143 0.633327
vt 0.099143 0.623590
vt 0.124751 0.623590
vt 0.124751 0.633327
vt 0.124751 0.643064
vt 0.124751 0.652800
vt 0.099143 0.652800
vt 0.099143 0.643064
vt 0.099143 0.613854
vt 0.124751 0.613854
vn -1.000000 0.000000 0.000000
vn -1.000000 0.000000 0.000000
vn -1.000000 0.000000 0.000000
vn -1.000000 0.000000 0.000000
vn 0.000000 1.000000 0.000000
vn 0.000000 1.000000 0.000000
vn 0.000000 1.000000 0.000000
vn 0.000000 1.000000 0.000000
vn 1.000000 0.000000 0.000000
vn 1.000000 0.000000 0.000000
vn 1.000000 0.000000 0.000000
vn 1.000000 0.000000 0.000000
vn 0.000000 -1.000000 0.000000
vn 0.000000 -1.000000 0.000000
vn 0.000000 -1.000000 0.000000
vn 0.000000 -1.000000 0.000000
vn 0.000000 0.000000 1.000000
vn 0.000000 0.000000 1.000000
vn 0.000000 0.000000 1.000000
vn 0.000000 0.000000 1.000000
vn 0.000000 0.000000 -1.000000
vn 0.000000 0.000000 -1.000000
vn 0.000000 0.000000 -1.000000
vn 0.000000 0.000000 -1.000000
vn 0.000000 0.000000 1.000000
vn -0.000000 0.000000 1.000000
vn -0.000000 0.000000 1.000000
vn 0.000000 0.000000 1.000000
vn -0.000000 0.000000 1.000000
vn -0.000000 0.000000 1.000000
vn 0.000000 0.000000 1.000000
vn 0.000000 0.000000 1.000000
vn 0.000000 1.000000 0.000000
vn 0.000000 1.000000 0.000000
vn 0.000000 1.000000 0.000000
vn 0.000000 1.000000 0.000000
vn -1.000000 0.000000 0.000000
vn -1.000000 0.000000 0.000000
vn -1.000000 0.000000 0.000000
vn -1.000000 0.000000 0.000000
vn 0.000000 -1.000000 0.000000
vn 0.000000 -1.000000 0.000000
vn 0.000000 -1.000000 0.000000
vn 0.000000 -1.000000 0.000000
vn 1.000000 0.000000 0.000000
vn 1.000000 0.000000 0.000000
vn 1.000000 0.000000 0.000000
vn 1.000000 0.000000 0.000000
vn -1.000000 0.000000 0.000000
vn -1.000000 0.000000 0.000000
vn -1.000000 0.000000 0.000000
vn -1.000000 0.000000 0.000000
vn 0.000000 1.000000 0.000000
vn 0.000000 1.000000 0.000000
vn 0.000000 1.000000 0.000000
vn 0.000000 1.000000 0.000000
vn 1.000000 0.000000 0.000000
vn 1.000000 0.000000 0.000000
vn 1.000000 0.000000 0.000000
vn 1.000000 0.000000 0.000000
vn 0.000000 -1.000000 0.000000
vn 0.000000 -1.000000 0.000000
vn 0.000000 -1.000000 0.000000
vn 0.000000 -1.000000 0.000000
vn 0.000000 0.000000 1.000000
vn 0.000000 0.000000 1.000000
vn 0.000000 0.000000 1.000000
vn 0.000000 0.000000 1.000000
vn 0.000000 0.000000 -1.000000
vn 0.000000 0.000000 -1.000000
vn 0.000000 0.000000 -1.000000
vn 0.000000 0.000000 -1.000000
vn -1.000000 0.000000 0.000000
vn -1.000000 0.000000 0.000000
vn -1.000000 0.000000 0.000000
vn -1.000000 0.000000 0.000000
vn 0.000000 1.000000 0.000000
vn 0.000000 1.000000 0.000000
vn 0.000000 1.000000 0.000000
vn 0.000000 1.000000 0.000000
vn 1.000000 0.000000 0.000000
vn 1.000000 0.000000 0.000000
vn 1.000000 0.000000 0.000000
vn 1.000000 0.000000 0.000000
vn 0.000000 -1.000000 0.000000
vn 0.000000 -1.000000 0.000000
vn 0.000000 -1.000000 0.000000
vn 0.000000 -1.000000 0.000000
vn 0.000000 0.000000 1.000000
vn 0.000000 0.000000 1.000000
vn 0.000000 0.000000 1.000000
vn 0.000000 0.000000 1.000000
vn 0.000000 0.000000 -1.000000
vn 0.000000 0.000000 -1.000000
vn 0.000000 0.000000 -1.000000
vn 0.000000 0.000000 -1.000000
vn 0.000000 0.000000 1.000000
vn -0.000000 0.000000 1.000000
vn -0.000000 0.000000 1.000000
vn 0.000000 0.000000 1.000000
vn -0.000000 0.000000 1.000000
vn -0.000000 0.000000 1.000000
vn 0.000000 0.000000 1.000000
vn 0.000000 0.000000 1.000000
vn 0.000000 1.000000 0.000000
vn 0.000000 1.000000 0.000000
vn 0.000000 1.000000 0.000000
vn 0.000000 1.000000 0.000000
vn -1.000000 0.000000 0.000000
vn -1.000000 0.000000 0.000000
vn -1.000000 0.000000 0.000000
vn -1.000000 0.000000 0.000000
vn 0.000000 -1.000000 0.000000
vn 0.000000 -1.000000 0.000000
vn 0.000000 -1.000000 0.000000
vn 0.000000 -1.000000 0.000000
vn 1.000000 0.000000 0.000000
vn 1.000000 0.000000 0.000000
vn 1.000000 0.000000 0.000000
vn 1.000000 0.000000 0.000000
vn -1.000000 0.000000 0.000000
vn -1.000000 0.000000 0.000000
vn -1.000000 0.000000 0.000000
vn -1.000000 0.000000 0.000000
vn 0.000000 1.000000 0.000000
vn 0.000000 1.000000 0.000000
vn 0.000000 1.000000 0.000000
vn 0.000000 1.000000 0.000000
vn 1.000000 0.000000 0.000000
vn 1.000000 0.000000 0.000000
vn 1.000000 0.000000 0.000000
vn 1.000000 0.000000 0.000000
vn 0.000000 -1.000000 0.000000
vn 0.000000 -1.000000 0.000000
vn 0.000000 -1.000000 0.000000
vn 0.000000 -1.000000 0.000000
vn 0.000000 0.000000 1.000000
vn 0.000000 0.000000 1.000000
vn 0.000000 0.000000 1.000000
vn 0.000000 0.000000 1.000000
vn 0.000000 0.000000 -1.000000
vn 0.000000 0.000000 -1.000000
vn 0.000000 0.000000 -1.000000
vn 0.000000 0.000000 -1.000000
vn 0.000000 0.000000 1.000000
vn -0.000000 0.000000 1.000000
vn -0.000000 0.000000 1.000000
vn 0.000000 0.000000 1.000000
vn -0.000000 0.000000 1.000000
vn -0.000000 0.000000 1.000000
vn 0.000000 0.000000 1.000000
vn 0.000000 0.000000 1.000000
vn 0.000000 1.000000 0.000000
vn 0.000000 1.000000 0.000000
vn 0.000000 1.000000 0.000000
vn 0.000000 1.000000 0.000000
vn -1.000000 0.000000 0.000000
vn -1.000000 0.000000 0.000000
vn -1.000000 0.000000 0.000000
vn -1.000000 0.000000 0.000000
vn 0.000000 -1.000000 0.000000
vn 0.000000 -1.000000 0.000000
vn 0.000000 -1.000000 0.000000
vn 0.000000 -1.000000 0.000000
vn 1.000000 0.000000 0.000000
vn 1.000000 0.000000 0.000000
vn 1.000000 0.000000 0.000000
vn 1.000000 0.000000 0.000000
vn -1.000000 0.000000 0.000000
vn -1.000000 0.000000 0.000000
vn -1.000000 0.000000 0.000000
vn -1.000000 0.000000 0.000000
vn 0.000000 1.000000 0.000000
vn 0.000000 1.000000 0.000000
vn 0.000000 1.000000 0.000000
vn 0.000000 1.000000 0.000000
vn 1.000000 0.000000 0.000000
vn 1.000000 0.000000 0.000000
vn 1.000000 0.000000 0.000000
vn 1.000000 0.000000 0.000000
vn 0.000000 -1.000000 0.000000
vn 0.000000 -1.000000 0.000000
vn 0.000000 -1.000000 0.000000
vn 0.000000 -1.000000 0.000000
vn 0.000000 0.000000 1.000000
vn 0.000000 0.000000 1.000000
vn 0.000000 0.000000 1.000000
vn 0.000000 0.000000 1.000000
vn 0.000000 0.000000 -1.000000
vn 0.000000 0.000000 -1.000000
vn 0.000000 0.000000 -1.000000
vn 0.000000 0.000000 -1.000000
vn 0.000000 0.000000 1.000000
vn -0.000000 0.000000 1.000000
vn -0.000000 0.000000 1.000000
vn 0.000000 0.000000 1.000000
vn -0.000000 0.000000 1.000000
vn -0.000000 0.000000 1.000000
vn 0.000000 0.000000 1.000000
vn 0.000000 0.000000 1.000000
vn 0.000000 1.000000 0.000000
vn 0.000000 1.000000 0.000000
vn 0.000000 1.000000 0.000000
vn 0.000000 1.000000 0.000000
vn -1.000000 0.000000 0.000000
vn -1.000000 0.000000 0.000000
vn -1.000000 0.000000 0.000000
vn -1.000000 0.000000 0.000000
vn 0.000000 -1.000000 0.000000
vn 0.000000 -1.000000 0.000000
vn 0.000000 -1.000000 0.000000
vn 0.000000 -1.000000 0.000000
vn 1.000000 0.000000 0.000000
vn 1.000000 0.000000 0.000000
vn 1.000000 0.000000 0.000000
vn 1.000000 0.000000 0.000000
vn 0.000000 1.000000 0.000000
vn 0.000000 1.000000 0.000000
vn 0.000000 1.000000 0.000000
vn 0.000000 1.000000 0.000000
vn 0.000000 -1.000000 0.000000
vn 0.000000 -1.000000 0.000000
vn 0.000000 -1.000000 0.000000
vn 0.000000 -1.000000 0.000000
vn 0.000000 0.000000 1.000000
vn 0.000000 0.000000 1.000000
vn 0.000000 0.000000 1.000000
vn 0.000000 0.000000 1.000000
vn 0.000000 0.000000 -1.000000
vn 0.000000 0.000000 -1.000000
vn 0.000000 0.000000 -1.000000
vn 0.000000 0.000000 -1.000000
vn 0.000000 1.000000 0.000000
vn 0.000000 1.000000 0.000000
vn 0.000000 1.000000 0.000000
vn 0.000000 1.000000 0.000000
vn 0.000000 -1.000000 0.000000
vn 0.000000 -1.000000 0.000000
vn 0.000000 -1.000000 0.000000
vn 0.000000 -1.000000 0.000000
vn 0.000000 0.000000 1.000000
vn 0.000000 0.000000 1.000000
vn 0.000000 0.000000 1.000000
vn 0.000000 0.000000 1.000000
vn 0.000000 0.000000 -1.000000
vn 0.000000 0.000000 -1.000000
vn 0.000000 0.000000 -1.000000
vn 0.000000 0.000000 -1.000000
vn 0.000000 1.000000 0.000000
vn 0.000000 1.000000 0.000000
vn 0.000000 1.000000 0.000000
vn 0.000000 1.000000 0.000000
vn 0.000000 -1.000000 0.000000
vn 0.000000 -1.000000 0.000000
vn 0.000000 -1.000000 0.000000
vn 0.000000 -1.000000 0.000000
vn 0.000000 0.000000 1.000000
vn 0.000000 0.000000 1.000000
vn 0.000000 0.000000 1.000000
vn 0.000000 0.000000 1.000000
vn 0.000000 0.000000 -1.000000
vn 0.000000 0.000000 -1.000000
vn 0.000000 0.000000 -1.000000
vn 0.000000 0.000000 -1.000000
vn 0.000000 1.000000 0.000000
vn 0.000000 1.000000 0.000000
vn 0.000000 1.000000 0.000000
vn 0.000000 1.000000 0.000000
vn 0.000000 -1.000000 0.000000
vn 0.000000 -1.000000 0.000000
vn 0.000000 -1.000000 0.000000
vn 0.000000 -1.000000 0.000000
vn 0.000000 0.000000 1.000000
vn 0.000000 0.000000 1.000000
vn 0.000000 0.000000 1.000000
vn 0.000000 0.000000 1.000000
vn 0.000000 0.000000 -1.000000
vn 0.000000 0.000000 -1.000000
vn 0.000000 0.000000 -1.000000
vn 0.000000 0.000000 -1.000000
vn 0.000000 1.000000 0.000000
vn 0.000000 1.000000 0.000000
vn 0.000000 1.000000 0.000000
vn 0.000000 1.000000 0.000000
vn 0.000000 -1.000000 0.000000
vn 0.000000 -1.000000 0.000000
vn 0.000000 -1.000000 0.000000
vn 0.000000 -1.000000 0.000000
vn 0.000000 0.000000 1.000000
vn 0.000000 0.000000 1.000000
vn 0.000000 0.000000 1.000000
vn 0.000000 0.000000 1.000000
vn 0.000000 0.000000 -1.000000
vn 0.000000 0.000000 -1.000000
vn 0.000000 0.000000 -1.000000
vn 0.000000 0.000000 -1.000000
vn 0.000000 1.000000 0.000000
vn 0.000000 1.000000 0.000000
vn 0.000000 1.000000 0.000000
vn 0.000000 1.000000 0.000000
vn 0.000000 -1.000000 0.000000
vn 0.000000 -1.000000 0.000000
vn 0.000000 -1.000000 0.000000
vn 0.000000 -1.000000 0.000000
vn 0.000000 0.000000 1.000000
vn 0.000000 0.000000 1.000000
vn 0.000000 0.000000 1.000000
vn 0.000000 0.000000 1.000000
vn 0.000000 0.000000 -1.000000
vn 0.000000 0.000000 -1.000000
vn 0.000000 0.000000 -1.000000
vn 0.000000 0.000000 -1.000000
vn 0.000000 1.000000 0.000000
vn 0.000000 1.000000 0.000000
vn 0.000000 1.000000 0.000000
vn 0.000000 1.000000 0.000000
vn 0.000000 -1.000000 0.000000
vn 0.000000 -1.000000 0.000000
vn 0.000000 -1.000000 0.000000
vn 0.000000 -1.000000 0.000000
vn 0.000000 0.000000 1.000000
vn 0.000000 0.000000 1.000000
vn 0.000000 0.000000 1.000000
vn 0.000000 0.000000 1.000000
vn 0.000000 0.000000 -1.000000
vn 0.000000 0.000000 -1.000000
vn 0.000000 0.000000 -1.000000
vn 0.000000 0.000000 -1.000000
vn 0.000000 1.000000 0.000000
vn 0.000000 1.000000 0.000000
vn 0.000000 1.000000 0.000000
vn 0.000000 1.000000 0.000000
vn 0.000000 -1.000000 0.000000
vn 0.000000 -1.000000 0.000000
vn 0.000000 -1.000000 0.000000
vn 0.000000 -1.000000 0.000000
vn 0.000000 0.000000 1.000000
vn 0.000000 0.000000 1.000000
vn 0.000000 0.000000 1.000000
vn 0.000000 0.000000 1.000000
vn 0.000000 0.000000 -1.000000
vn 0.000000 0.000000 -1.000000
vn 0.000000 0.000000 -1.000000
vn 0.000000 0.000000 -1.000000
s off
g billboard_wall
usemtl initialShadingGroup
f 1/23/1 2/9/2 4/15/3 3/25/4
f 3/7/5 4/15/6 6/13/7 5/24/8
f 5/8/9 6/13/10 8/10/11 7/22/12
f 7/17/13 8/10/14 2/9/15 1/26/16
f 14/1/17 13/2/18 15/3/19 16/4/20
f 7/5/21 1/6/22 3/7/23 5/24/24
s 1
f 2/9/25 8/10/26 9/11/27 10/12/28
f 8/10/26 6/13/29 11/14/30 9/11/27
f 6/13/29 4/15/31 12/16/32 11/14/30
f 4/15/31 2/9/25 10/12/28 12/16/32
s off
f 10/12/33 9/11/34 13/18/35 14/19/36
f 9/11/37 11/14/38 15/21/39 13/18/40
f 11/14/41 12/16/42 16/20/43 15/21/44
f 12/16/45 10/12/46 14/19/47 16/20/48
f 17/27/49 18/28/50 20/29/51 19/30/52
f 19/30/53 20/29/54 22/31/55 21/32/56
f 21/33/57 22/34/58 24/35/59 23/36/60
f 23/36/61 24/35/62 18/37/63 17/38/64
f 18/28/65 24/35/66 22/34/67 20/29/68
f 23/39/69 17/27/70 19/30/71 21/40/72
f 25/41/73 26/42/74 28/43/75 27/44/76
f 27/45/77 28/43/78 30/46/79 29/47/80
f 29/48/81 30/46/82 32/49/83 31/50/84
f 31/51/85 32/49/86 26/42/87 25/52/88
f 38/53/89 37/54/90 39/55/91 40/56/92
f 31/57/93 25/58/94 27/45/95 29/47/96
s 2
f 26/42/97 32/49/98 33/59/99 34/60/100
f 32/49/98 30/46/101 35/61/102 33/59/99
f 30/46/101 28/43/103 36/62/104 35/61/102
f 28/43/103 26/42/97 34/60/100 36/62/104
s off
f 34/60/105 33/59/106 37/63/107 38/64/108
f 33/59/109 35/61/110 39/65/111 37/63/112
f 35/61/113 36/62/114 40/66/115 39/65/116
f 36/62/117 34/60/118 38/64/119 40/66/120
f 41/67/121 42/68/122 44/69/123 43/70/124
f 43/71/125 44/69/126 46/72/127 45/73/128
f 45/74/129 46/72/130 48/75/131 47/76/132
f 47/77/133 48/75/134 42/68/135 41/78/136
f 54/79/137 53/80/138 55/81/139 56/82/140
f 47/83/141 41/84/142 43/71/143 45/73/144
s 3
f 42/68/145 48/75/146 49/85/147 50/86/148
f 48/75/146 46/72/149 51/87/150 49/85/147
f 46/72/149 44/69/151 52/88/152 51/87/150
f 44/69/151 42/68/145 50/86/148 52/88/152
s off
f 50/86/153 49/85/154 53/89/155 54/90/156
f 49/85/157 51/87/158 55/91/159 53/89/160
f 51/87/161 52/88/162 56/92/163 55/91/164
f 52/88/165 50/86/166 54/90/167 56/92/168
f 57/93/169 58/94/170 60/95/171 59/96/172
f 59/97/173 60/95/174 62/98/175 61/99/176
f 61/100/177 62/98/178 64/101/179 63/102/180
f 63/103/181 64/101/182 58/94/183 57/104/184
f 70/105/185 69/106/186 71/107/187 72/108/188
f 63/109/189 57/110/190 59/97/191 61/99/192
s 4
f 58/94/193 64/101/194 65/111/195 66/112/196
f 64/101/194 62/98/197 67/113/198 65/111/195
f 62/98/197 60/95/199 68/114/200 67/113/198
f 60/95/199 58/94/193 66/112/196 68/114/200
s off
f 66/112/201 65/111/202 69/115/203 70/116/204
f 65/111/205 67/113/206 71/117/207 69/115/208
f 67/113/209 68/114/210 72/118/211 71/117/212
f 68/114/213 66/112/214 70/116/215 72/118/216
f 75/119/217 76/120/218 78/121/219 77/122/220
f 79/123/221 80/124/222 74/125/223 73/126/224
f 74/127/225 80/128/226 78/121/227 76/120/228
f 79/123/229 73/126/230 75/119/231 77/122/232
f 83/129/233 84/130/234 86/131/235 85/132/236
f 87/133/237 88/134/238 82/135/239 81/136/240
f 82/137/241 88/138/242 86/131/243 84/130/244
f 87/133/245 81/136/246 83/129/247 85/132/248
f 91/139/249 92/140/250 94/141/251 93/142/252
f 95/143/253 96/144/254 90/145/255 89/146/256
f 90/147/257 96/148/258 94/141/259 92/140/260
f 95/143/261 89/146/262 91/139/263 93/142/264
f 99/149/265 100/150/266 102/151/267 101/152/268
f 103/153/269 104/154/270 98/155/271 97/156/272
f 98/157/273 104/158/274 102/151/275 100/150/276
f 103/153/277 97/156/278 99/149/279 101/152/280
f 107/159/281 108/160/282 110/161/283 109/162/284
f 111/163/285 112/164/286 106/165/287 105/166/288
f 106/167/289 112/168/290 110/161/291 108/160/292
f 111/163/293 105/166/294 107/159/295 109/162/296
f 115/169/297 116/170/298 118/171/299 117/172/300
f 119/173/301 120/174/302 114/175/303 113/176/304
f 114/177/305 120/178/306 118/171/307 116/170/308
f 119/173/309 113/176/310 115/169/311 117/172/312
f 123/179/313 124/180/314 126/181/315 125/182/316
f 127/183/317 128/184/318 122/185/319 121/186/320
f 122/187/321 128/188/322 126/181/323 124/180/324
f 127/183/325 121/186/326 123/179/327 125/182/328
f 131/189/329 132/190/330 134/191/331 133/192/332
f 135/193/333 136/194/334 130/195/335 129/196/336
f 130/197/337 136/198/338 134/191/339 132/190/340
f 135/193/341 129/196/342 131/189/343 133/192/344
