# This file uses centimeters as units for non-parametric coordinates.

mtllib Book_Uvd.mtl
g default
v 0.326538 -0.059959 -0.401020
v -0.236506 -0.059959 -0.401020
v 0.326538 0.059959 -0.401020
v -0.236506 0.059959 -0.401020
v 0.326538 0.059959 0.401020
v -0.236506 0.059959 0.401020
v 0.326538 -0.059959 0.401020
v -0.236506 -0.059959 0.401020
v 0.326538 0.072401 -0.401020
v -0.251551 0.072401 -0.401020
v -0.251551 0.072401 0.401020
v 0.326538 0.072401 0.401020
v 0.326538 -0.072401 0.401020
v -0.251551 -0.072401 0.401020
v -0.251551 -0.072401 -0.401020
v 0.326538 -0.072401 -0.401020
v 0.306538 -0.059959 -0.382653
v -0.237762 -0.059959 -0.382653
v -0.237762 0.059959 -0.382653
v 0.306538 0.059959 -0.382653
v 0.306538 0.059959 0.382653
v -0.237762 0.059959 0.382653
v -0.237762 -0.059959 0.382653
v 0.306538 -0.059959 0.382653
v -0.213394 -0.059959 -0.401020
v -0.215417 -0.059959 -0.382653
v -0.215417 0.059959 -0.382653
v -0.213394 0.059959 -0.401020
v -0.223800 0.072401 -0.401020
v -0.223800 0.072401 0.401020
v -0.213394 0.059959 0.401020
v -0.215417 0.059959 0.382653
v -0.215417 -0.059959 0.382653
v -0.213394 -0.059959 0.401020
v -0.223800 -0.072401 0.401020
v -0.223800 -0.072401 -0.401020
v -0.244682 0.000000 -0.401020
v -0.245837 0.000000 -0.382653
v -0.224488 0.000000 -0.382653
v 0.306538 0.000000 -0.382653
v 0.306538 0.000000 0.382653
v -0.224488 0.000000 0.382653
v -0.245837 0.000000 0.382653
v -0.244682 0.000000 0.401020
v -0.263366 0.000000 0.401020
v -0.263366 0.000000 -0.401020
v -0.243920 0.017988 0.401020
v -0.245082 0.017988 0.382653
v -0.223625 0.017988 0.382653
v 0.306538 0.017988 0.382653
v 0.306538 0.017988 -0.382653
v -0.223625 0.017988 -0.382653
v -0.245082 0.017988 -0.382653
v -0.243920 0.017988 -0.401020
v -0.262248 0.021720 -0.401020
v -0.262248 0.021720 0.401020
v -0.243920 -0.017988 -0.401020
v -0.245082 -0.017988 -0.382653
v -0.223625 -0.017988 -0.382653
v 0.306538 -0.017988 -0.382653
v 0.306538 -0.017988 0.382653
v -0.223625 -0.017988 0.382653
v -0.245082 -0.017988 0.382653
v -0.243920 -0.017988 0.401020
v -0.262248 -0.021720 0.401020
v -0.262248 -0.021720 -0.401020
v -0.189979 -0.059959 -0.401020
v -0.192781 -0.059959 -0.382653
v -0.200633 -0.017988 -0.382653
v -0.201458 0.000000 -0.382653
v -0.200633 0.017988 -0.382653
v -0.192781 0.059959 -0.382653
v -0.189979 0.059959 -0.401020
v -0.199933 0.067040 -0.401020
v -0.199933 0.067040 0.401020
v -0.189979 0.059959 0.401020
v -0.192781 0.059959 0.382653
v -0.200633 0.017988 0.382653
v -0.201459 0.000000 0.382653
v -0.200633 -0.017988 0.382653
v -0.192781 -0.059959 0.382653
v -0.189979 -0.059959 0.401020
v -0.199933 -0.066476 0.401020
v -0.199933 -0.066476 -0.401020
v -0.166251 -0.059959 -0.401020
v -0.169844 -0.059959 -0.382653
v -0.177335 -0.017988 -0.382653
v -0.178122 0.000000 -0.382653
v -0.177335 0.017988 -0.382653
v -0.169844 0.059959 -0.382653
v -0.166251 0.059959 -0.401020
v -0.175748 0.072401 -0.401020
v -0.175748 0.072401 0.401020
v -0.166251 0.059959 0.401020
v -0.169844 0.059959 0.382653
v -0.177335 0.017988 0.382653
v -0.178123 0.000000 0.382653
v -0.177335 -0.017988 0.382653
v -0.169844 -0.059959 0.382653
v -0.166251 -0.059959 0.401020
v -0.175748 -0.072401 0.401020
v -0.175748 -0.072401 -0.401020
vt 0.317797 0.436184
vt 0.315461 0.012929
vt 0.342591 0.010088
vt 0.345295 0.438497
vt 0.354140 0.009747
vt 0.356864 0.438668
vt 0.365707 0.009914
vt 0.368416 0.438329
vt 0.393201 0.012212
vt 0.395553 0.435502
vt 0.295384 0.835079
vt 0.704625 0.835146
vt 0.704622 0.857589
vt 0.295380 0.857522
vt 0.704620 0.867208
vt 0.295378 0.867141
vt 0.704619 0.876827
vt 0.295376 0.876760
vt 0.704616 0.899271
vt 0.295372 0.899204
vt 0.710821 0.007024
vt 0.710731 0.438907
vt 0.704068 0.438891
vt 0.704158 0.007006
vt 0.000000 0.441325
vt 0.000203 0.009393
vt 0.006865 0.009412
vt 0.006663 0.441346
vt 0.718080 0.000000
vt 0.718080 0.058421
vt 0.714257 0.058421
vt 0.714257 0.000000
vt 0.718080 0.083459
vt 0.714257 0.083459
vt 0.718080 0.108496
vt 0.714257 0.108496
vt 0.718080 0.166917
vt 0.714257 0.166917
vt 0.722070 0.058421
vt 0.718248 0.058421
vt 0.718248 0.000000
vt 0.722070 0.000000
vt 0.722070 0.083459
vt 0.718248 0.083459
vt 0.722070 0.108497
vt 0.718248 0.108497
vt 0.718248 0.166918
vt 0.722070 0.166918
vt 0.436417 0.437521
vt 0.433933 0.009714
vt 0.423173 0.438043
vt 0.420649 0.009356
vt 0.410120 0.436984
vt 0.407657 0.010525
vt 0.274474 0.010904
vt 0.276927 0.438677
vt 0.287781 0.010320
vt 0.290283 0.439099
vt 0.300897 0.011459
vt 0.303337 0.437856
vt 0.375085 0.447182
vt 0.667112 0.447182
vt 0.669241 0.456045
vt 0.386937 0.456045
vt 0.681173 0.447182
vt 0.682834 0.456045
vt 0.375085 0.834196
vt 0.386937 0.825334
vt 0.695049 0.447182
vt 0.696248 0.456045
vt 0.669241 0.825334
vt 0.667112 0.834196
vt 0.708745 0.447182
vt 0.709489 0.456045
vt 0.682834 0.825334
vt 0.681173 0.834196
vt 0.696248 0.825334
vt 0.695049 0.834196
vt 0.708745 0.834196
vt 0.709489 0.825334
vt 0.294156 0.826159
vt 0.292027 0.835022
vt 0.000000 0.835022
vt 0.011852 0.826159
vt 0.307749 0.826159
vt 0.306088 0.835022
vt 0.000000 0.448009
vt 0.011852 0.456871
vt 0.321163 0.826159
vt 0.319964 0.835022
vt 0.292027 0.448009
vt 0.294156 0.456871
vt 0.333660 0.835022
vt 0.334404 0.826159
vt 0.306088 0.448009
vt 0.307749 0.456871
vt 0.319964 0.448009
vt 0.321163 0.456871
vt 0.333660 0.448009
vt 0.334404 0.456871
vt 0.959367 0.835177
vt 0.963370 0.857621
vt 0.971632 0.835178
vt 0.975828 0.857623
vt 0.963790 0.867240
vt 0.983737 0.835180
vt 0.988124 0.857624
vt 0.976269 0.867241
vt 0.963368 0.876859
vt 0.999597 0.857625
vt 0.995686 0.835181
vt 0.988584 0.867243
vt 0.975826 0.876860
vt 0.959359 0.899302
vt 1.000000 0.867244
vt 0.988121 0.876862
vt 0.971625 0.899303
vt 0.999595 0.876863
vt 0.983729 0.899305
vt 0.995678 0.899306
vt 0.036633 0.857472
vt 0.040643 0.835029
vt 0.036210 0.867091
vt 0.024174 0.857470
vt 0.028378 0.835027
vt 0.036629 0.876709
vt 0.023731 0.867088
vt 0.011880 0.857467
vt 0.016273 0.835024
vt 0.040631 0.899154
vt 0.024171 0.876707
vt 0.011416 0.867086
vt 0.000406 0.857465
vt 0.004325 0.835022
vt 0.028365 0.899152
vt 0.011876 0.876705
vt 0.000000 0.867084
vt 0.016261 0.899149
vt 0.000402 0.876702
vt 0.004312 0.899147
vt 0.703910 0.445555
vt 0.441227 0.444220
vt 0.428348 0.442406
vt 0.415254 0.442875
vt 0.397761 0.443191
vt 0.369395 0.448191
vt 0.356931 0.448414
vt 0.344465 0.448375
vt 0.315819 0.443910
vt 0.298197 0.443655
vt 0.285090 0.443254
vt 0.272119 0.445400
vt 0.006857 0.448009
vt 0.438750 0.002990
vt 0.703964 0.000343
vt 0.425814 0.004946
vt 0.412721 0.004578
vt 0.395164 0.004488
vt 0.366530 0.000035
vt 0.354067 0.000000
vt 0.341604 0.000227
vt 0.313238 0.005238
vt 0.295690 0.005716
vt 0.282583 0.006212
vt 0.269679 0.004202
vt 0.007030 0.002748
vn -0.000000 0.000001 -1.000000
vn -0.000000 0.000001 -1.000000
vn -0.000000 0.000000 -1.000000
vn -0.000000 0.000000 -1.000000
vn -0.000000 1.000000 0.000000
vn -0.010182 0.999948 0.000000
vn -0.010182 0.999948 0.000000
vn -0.000000 1.000000 0.000000
vn 0.000000 0.000000 1.000000
vn 0.000000 0.000000 1.000000
vn 0.000000 0.000000 1.000000
vn 0.000000 0.000000 1.000000
vn 0.000000 -1.000000 0.000000
vn -0.011255 -0.999937 0.000000
vn -0.011255 -0.999937 0.000000
vn 0.000000 -1.000000 0.000000
vn -0.978443 -0.206516 0.000000
vn -0.978443 -0.206516 0.000000
vn -0.986944 -0.161064 0.000000
vn -0.986944 -0.161064 0.000000
vn 1.000000 0.000000 -0.000000
vn 1.000000 0.000000 -0.000000
vn 1.000000 0.000000 -0.000000
vn 1.000000 0.000000 -0.000000
vn -0.000000 0.000000 -1.000000
vn -0.000000 0.000000 -1.000000
vn -0.000000 0.000000 -1.000000
vn -0.000000 0.000000 -1.000000
vn 0.000000 0.000000 1.000000
vn 0.000000 0.000000 1.000000
vn 0.000000 0.000000 1.000000
vn 0.000000 0.000000 1.000000
vn 1.000000 0.000000 -0.000000
vn 1.000000 0.000000 -0.000000
vn 1.000000 0.000000 -0.000000
vn 1.000000 0.000000 -0.000000
vn 0.000000 0.000000 1.000000
vn 0.000000 0.000000 1.000000
vn 0.000000 0.000000 1.000000
vn 0.000000 0.000000 1.000000
vn -0.000000 0.000000 -1.000000
vn -0.000000 0.000000 -1.000000
vn -0.000000 0.000000 -1.000000
vn -0.000000 0.000000 -1.000000
vn 1.000000 0.000000 -0.000000
vn 1.000000 0.000000 -0.000000
vn 1.000000 0.000000 -0.000000
vn 1.000000 0.000000 -0.000000
vn 0.000000 0.000000 1.000000
vn 0.000000 0.000000 1.000000
vn 0.000000 0.000000 1.000000
vn 0.000000 0.000000 1.000000
vn -0.000000 0.000000 -1.000000
vn -0.000000 0.000000 -1.000000
vn -0.000000 0.000000 -1.000000
vn -0.000000 0.000000 -1.000000
vn 0.000000 1.000000 0.000000
vn 0.000000 1.000000 0.000000
vn 0.000000 1.000000 0.000000
vn 0.000000 1.000000 0.000000
vn 0.982878 0.172526 0.064701
vn 0.988884 0.134072 0.064288
vn 0.988899 0.133965 0.064287
vn 0.982878 0.172526 0.064701
vn 0.000000 -1.000000 0.000000
vn 0.000000 -1.000000 0.000001
vn 0.000000 -1.000000 0.000000
vn 0.000000 -1.000000 0.000000
vn -0.000000 -1.000000 -0.000000
vn -0.000000 -1.000000 -0.000000
vn -0.000000 -1.000000 -0.000000
vn -0.000000 -1.000000 -0.000000
vn 0.988899 0.133965 -0.064287
vn 0.988884 0.134072 -0.064288
vn 0.982878 0.172526 -0.064701
vn 0.982878 0.172526 -0.064701
vn -0.000000 1.000000 -0.000000
vn -0.000000 1.000000 -0.000001
vn -0.000000 1.000000 -0.000000
vn -0.000000 1.000000 -0.000000
vn -0.000000 1.000000 0.000000
vn -0.000000 1.000000 0.000000
vn -0.000000 1.000000 0.000000
vn -0.000000 1.000000 0.000000
vn -0.000000 0.000000 -1.000000
vn 0.000001 0.000000 -1.000000
vn 0.000001 0.000000 -1.000000
vn -0.000000 0.000000 -1.000000
vn 0.000000 -1.000000 0.000000
vn 0.000000 -1.000000 0.000000
vn 0.000000 -1.000000 0.000000
vn 0.000000 -1.000000 0.000000
vn -0.000000 0.000000 -1.000000
vn -0.000000 0.000000 -1.000000
vn -0.000000 0.000000 -1.000000
vn -0.000000 0.000000 -1.000000
vn 0.103303 0.994650 -0.000000
vn 0.103303 0.994650 -0.000000
vn -0.000000 1.000000 0.000000
vn -0.000000 1.000000 0.000000
vn 0.000000 0.000000 1.000000
vn 0.000000 0.000000 1.000000
vn 0.000000 0.000000 1.000000
vn 0.000000 0.000000 1.000000
vn 0.000000 -1.000000 0.000000
vn 0.000000 -1.000000 0.000000
vn 0.000000 -1.000000 0.000000
vn 0.000000 -1.000000 0.000000
vn 0.000000 0.000000 1.000000
vn 0.000000 0.000000 1.000000
vn 0.000000 0.000000 1.000000
vn 0.000000 0.000000 1.000000
vn -0.000000 1.000000 -0.000000
vn -0.000000 1.000000 -0.000000
vn -0.000000 1.000000 -0.000000
vn -0.000000 1.000000 -0.000000
vn 0.000000 0.000000 1.000000
vn 0.000000 0.000000 1.000000
vn 0.114048 -0.993475 -0.000000
vn 0.114048 -0.993475 -0.000000
vn 0.000000 -1.000000 0.000000
vn 0.000000 -1.000000 0.000000
vn -0.000000 0.000000 -1.000000
vn -0.000000 0.000000 -1.000000
vn 0.988899 -0.133965 0.064287
vn 0.988884 -0.134072 0.064288
vn 0.982878 -0.172526 0.064701
vn 0.982878 -0.172526 0.064701
vn -0.000000 0.000000 -1.000000
vn -0.000000 -0.000000 -1.000000
vn -0.000000 0.000000 -1.000000
vn -0.000000 0.000000 -1.000000
vn -0.000000 -0.000000 -1.000000
vn -0.000000 -0.000000 -1.000000
vn -0.000000 0.000000 -1.000000
vn -0.000000 0.000000 -1.000000
vn 1.000000 0.000000 -0.000000
vn 1.000000 0.000000 -0.000000
vn 1.000000 0.000000 -0.000000
vn 1.000000 0.000000 -0.000000
vn -0.000000 -0.000001 1.000000
vn -0.000000 -0.000001 1.000000
vn -0.000000 0.000000 1.000000
vn -0.000000 0.000000 1.000000
vn 0.000000 0.000000 1.000000
vn 0.000001 -0.000000 1.000000
vn 0.000001 -0.000000 1.000000
vn 0.000000 0.000000 1.000000
vn 0.982878 -0.172526 -0.064701
vn 0.988884 -0.134072 -0.064288
vn 0.988899 -0.133965 -0.064287
vn 0.982878 -0.172526 -0.064701
vn 0.000000 0.000000 1.000000
vn 0.000000 0.000000 1.000000
vn -0.986944 0.161064 0.000000
vn -0.986944 0.161064 0.000000
vn -0.978443 0.206516 0.000000
vn -0.978443 0.206516 0.000000
vn -0.000000 0.000000 -1.000000
vn -0.000000 0.000000 -1.000000
vn 0.998015 0.000000 -0.062974
vn 0.998015 0.000000 -0.062974
vn 0.000000 0.000000 1.000000
vn 0.000000 0.000000 1.000000
vn 0.000000 0.000001 1.000000
vn 0.000000 0.000001 1.000000
vn 1.000000 0.000000 -0.000000
vn 1.000000 0.000000 -0.000000
vn -0.000000 -0.000001 -1.000000
vn 0.000000 -0.000001 -1.000000
vn -0.000000 -0.000000 -1.000000
vn -0.000000 0.000000 -1.000000
vn 0.998015 0.000000 0.062974
vn 0.998015 0.000000 0.062974
vn -0.000000 0.000000 -1.000000
vn -0.000000 0.000000 -1.000000
vn -1.000000 0.000000 0.000000
vn -1.000000 0.000000 0.000000
vn 0.000000 0.000000 1.000000
vn 0.000000 0.000000 1.000000
vn -0.000000 1.000000 0.000000
vn -0.000000 1.000000 0.000000
vn 0.000001 0.000000 -1.000000
vn 0.000001 0.000001 -1.000000
vn 0.000000 -0.000001 -1.000000
vn -0.000000 -0.000000 -1.000000
vn -0.000000 0.000000 -1.000000
vn 0.000000 -1.000000 0.000000
vn 0.000000 -1.000000 0.000000
vn -0.000000 0.000000 -1.000000
vn -0.000000 0.000000 -1.000000
vn -0.000000 1.000000 0.000000
vn -0.000000 1.000000 0.000000
vn 0.000000 0.000000 1.000000
vn 0.000000 0.000000 1.000000
vn 0.000000 -1.000000 0.000000
vn 0.000000 -1.000000 0.000000
vn 0.000001 -0.000000 1.000000
vn 0.000001 -0.000001 1.000000
vn 0.000000 0.000001 1.000000
vn 0.000000 0.000000 1.000000
vn 0.000000 0.000000 1.000000
vn -0.000000 1.000000 0.000000
vn -0.000000 1.000000 0.000000
vn 0.000000 0.000000 1.000000
vn 0.000000 0.000000 1.000000
vn -0.000000 -1.000000 0.000000
vn -0.000000 -1.000000 0.000000
vn -0.000000 0.000000 -1.000000
vn -0.000000 0.000000 -1.000000
s 1
g book
usemtl initialShadingGroup
f 17/12/1 86/101/2 87/102/3 60/13/4
s 2
f 9/23/5 92/49/6 93/50/7 12/24/8
s 3
f 61/14/9 98/121/10 99/122/11 24/11/12
s 4
f 13/27/13 101/55/14 102/56/15 16/28/16
s 5
f 15/1/17 14/2/18 65/3/19 66/4/20
s 6
f 24/11/21 17/12/22 60/13/23 61/14/24
s 7
f 3/141/25 91/142/26 92/49/27 9/23/28
s 8
f 93/50/29 94/154/30 5/155/31 12/24/32
s off
f 5/21/33 3/22/34 9/23/35 12/24/36
s 8
f 7/166/37 100/165/38 101/55/39 13/27/40
s 7
f 102/56/41 85/152/42 1/153/43 16/28/44
s off
f 1/25/45 7/26/46 13/27/47 16/28/48
s 8
f 8/162/49 64/161/50 65/3/51 14/2/52
s 7
f 66/4/53 57/148/54 2/149/55 15/1/56
s 13
f 1/61/57 85/62/58 86/63/59 17/64/60
s 14
f 2/29/61 57/30/62 58/31/63 18/32/64
s 15
f 90/81/65 91/82/66 3/83/67 20/84/68
f 5/87/69 94/91/70 95/92/71 21/88/72
s 17
f 63/39/73 64/40/74 8/41/75 23/42/76
s 13
f 99/71/77 100/72/78 7/67/79 24/68/80
f 7/67/79 1/61/57 17/64/60 24/68/80
s 15
f 3/83/67 5/87/69 21/88/72 20/84/68
s 13
f 26/70/81 25/69/82 2/73/83 18/74/84
s 1
f 58/110/85 59/107/86 26/106/87 18/111/88
s 15
f 4/93/89 28/90/90 27/89/91 19/94/92
s 7
f 29/53/93 28/144/94 4/145/95 10/10/96
s 2
f 30/54/97 29/53/98 10/10/99 11/9/100
s 8
f 6/158/101 31/157/102 30/54/103 11/9/104
s 15
f 32/98/105 31/97/106 6/99/107 22/100/108
s 3
f 33/129/109 62/128/110 63/133/111 23/134/112
s 13
f 8/79/113 34/78/114 33/77/115 23/80/116
s 8
f 35/59/117 34/163/118 8/162/49 14/2/52
s 4
f 36/60/119 35/59/120 14/2/121 15/1/122
s 7
f 2/149/55 25/150/123 36/60/124 15/1/56
s 14
f 53/36/125 54/35/126 4/37/127 19/38/128
s 1
f 27/119/129 52/116/130 53/118/131 19/120/132
f 51/17/133 89/109/134 90/114/135 20/19/136
s 6
f 50/18/137 51/17/138 20/19/139 21/20/140
s 3
f 21/20/141 95/130/142 96/126/143 50/18/144
f 48/139/145 49/136/146 32/138/147 22/140/148
s 17
f 6/47/149 47/46/150 48/45/151 22/48/152
s 8
f 56/7/153 47/159/154 6/158/101 11/9/104
s 5
f 55/8/155 56/7/156 11/9/157 10/10/158
s 7
f 4/145/95 54/146/159 55/8/160 10/10/96
s 17
f 48/45/151 47/46/150 44/44/161 43/43/162
s 3
f 43/137/163 42/132/164 49/136/146 48/139/145
f 50/18/144 96/126/143 97/123/165 41/16/166
s 6
f 41/16/167 40/15/168 51/17/138 50/18/137
s 1
f 40/15/169 88/105/170 89/109/134 51/17/133
f 53/118/131 52/116/130 39/112/171 38/115/172
s 14
f 38/34/173 37/33/174 54/35/126 53/36/125
s 7
f 55/8/160 54/146/159 37/147/175 46/6/176
s 5
f 46/6/177 45/5/178 56/7/156 55/8/155
s 8
f 45/5/179 44/160/180 47/159/154 56/7/153
s 14
f 58/31/63 57/30/62 37/33/174 38/34/173
s 1
f 38/115/172 39/112/171 59/107/86 58/110/85
f 60/13/4 87/102/3 88/105/170 40/15/169
s 6
f 61/14/24 60/13/23 40/15/168 41/16/167
s 3
f 41/16/166 97/123/165 98/121/10 61/14/9
f 63/133/111 62/128/110 42/132/164 43/137/163
s 17
f 43/43/162 44/44/161 64/40/74 63/39/73
s 8
f 65/3/51 64/161/50 44/160/180 45/5/179
s 5
f 66/4/20 65/3/19 45/5/178 46/6/177
s 7
f 46/6/176 37/147/175 57/148/54 66/4/53
s 13
f 68/66/181 67/65/182 25/69/82 26/70/81
s 1
f 69/104/183 68/103/184 26/106/87 59/107/86
f 70/108/185 69/104/183 59/107/86 39/112/171
f 71/113/186 70/108/185 39/112/171 52/116/130
f 72/117/187 71/113/186 52/116/130 27/119/129
s 15
f 27/89/91 28/90/90 73/86/188 72/85/189
s 7
f 74/51/190 73/143/191 28/144/94 29/53/93
s 2
f 75/52/192 74/51/193 29/53/98 30/54/97
s 8
f 30/54/103 31/157/102 76/156/194 75/52/195
s 15
f 77/96/196 76/95/197 31/97/106 32/98/105
s 3
f 78/131/198 77/135/199 32/138/147 49/136/146
f 79/127/200 78/131/198 49/136/146 42/132/164
f 80/124/201 79/127/200 42/132/164 62/128/110
f 81/125/202 80/124/201 62/128/110 33/129/109
s 13
f 33/77/115 34/78/114 82/76/203 81/75/204
s 8
f 83/57/205 82/164/206 34/163/118 35/59/117
s 4
f 84/58/207 83/57/208 35/59/120 36/60/119
s 7
f 36/60/124 25/150/123 67/151/209 84/58/210
s 13
f 86/63/59 85/62/58 67/65/182 68/66/181
s 1
f 87/102/3 86/101/2 68/103/184 69/104/183
f 88/105/170 87/102/3 69/104/183 70/108/185
f 89/109/134 88/105/170 70/108/185 71/113/186
f 90/114/135 89/109/134 71/113/186 72/117/187
s 15
f 72/85/189 73/86/188 91/82/66 90/81/65
s 7
f 92/49/27 91/142/26 73/143/191 74/51/190
s 2
f 93/50/7 92/49/6 74/51/193 75/52/192
s 8
f 75/52/195 76/156/194 94/154/30 93/50/29
s 15
f 95/92/71 94/91/70 76/95/197 77/96/196
s 3
f 96/126/143 95/130/142 77/135/199 78/131/198
f 97/123/165 96/126/143 78/131/198 79/127/200
f 98/121/10 97/123/165 79/127/200 80/124/201
f 99/122/11 98/121/10 80/124/201 81/125/202
s 13
f 81/75/204 82/76/203 100/72/78 99/71/77
s 8
f 101/55/39 100/165/38 82/164/206 83/57/205
s 4
f 102/56/15 101/55/14 83/57/208 84/58/207
s 7
f 84/58/210 67/151/209 85/152/42 102/56/41
