# This file uses centimeters as units for non-parametric coordinates.

mtllib Bottle_Wine.mtl
g default
v 0.100344 0.011043 -0.041564
v 0.076800 0.011043 -0.076800
v 0.041564 0.011043 -0.100344
v 0.000000 0.011043 -0.108612
v -0.041564 0.011043 -0.100344
v -0.076800 0.011043 -0.076800
v -0.100344 0.011043 -0.041564
v -0.108612 0.011043 -0.000000
v -0.100344 0.011043 0.041564
v -0.076800 0.011043 0.076800
v -0.041564 0.011043 0.100344
v -0.000000 0.011043 0.108612
v 0.041564 0.011043 0.100344
v 0.076800 0.011043 0.076800
v 0.100344 0.011043 0.041564
v 0.108612 0.011043 0.000000
v 0.100344 0.473380 -0.041564
v 0.076800 0.473380 -0.076800
v 0.041564 0.473380 -0.100344
v 0.000000 0.473380 -0.108612
v -0.041564 0.473380 -0.100344
v -0.076800 0.473380 -0.076800
v -0.100344 0.473380 -0.041564
v -0.108612 0.473380 -0.000000
v -0.100344 0.473380 0.041564
v -0.076800 0.473380 0.076800
v -0.041564 0.473380 0.100344
v -0.000000 0.473380 0.108612
v 0.041564 0.473380 0.100344
v 0.076800 0.473380 0.076800
v 0.100344 0.473380 0.041564
v 0.108612 0.473380 -0.000000
v 0.000000 0.011043 0.000000
v 0.058429 0.590305 -0.024202
v 0.044720 0.590305 -0.044720
v 0.024202 0.590305 -0.058429
v 0.000000 0.590305 -0.063243
v -0.024202 0.590305 -0.058429
v -0.044720 0.590305 -0.044720
v -0.058429 0.590305 -0.024202
v -0.063243 0.590305 -0.000000
v -0.058429 0.590305 0.024202
v -0.044720 0.590305 0.044720
v -0.024202 0.590305 0.058429
v -0.000000 0.590305 0.063243
v 0.024202 0.590305 0.058429
v 0.044720 0.590305 0.044720
v 0.058429 0.590305 0.024202
v 0.063243 0.590305 0.000000
v 0.092303 0.511614 -0.038233
v 0.099908 0.511614 0.000000
v 0.092303 0.511614 0.038233
v 0.070646 0.511614 0.070646
v 0.038233 0.511614 0.092303
v -0.000000 0.511614 0.099908
v -0.038233 0.511614 0.092303
v -0.070646 0.511614 0.070646
v -0.092303 0.511614 0.038233
v -0.099908 0.511614 -0.000000
v -0.092303 0.511614 -0.038233
v -0.070646 0.511614 -0.070646
v -0.038233 0.511614 -0.092303
v 0.000000 0.511614 -0.099908
v 0.038233 0.511614 -0.092303
v 0.070646 0.511614 -0.070646
v 0.031659 0.624038 -0.013114
v 0.024231 0.624038 -0.024231
v 0.013114 0.624038 -0.031659
v 0.000000 0.624038 -0.034267
v -0.013113 0.624038 -0.031659
v -0.024231 0.624038 -0.024231
v -0.031659 0.624038 -0.013114
v -0.034267 0.624038 -0.000000
v -0.031659 0.624038 0.013113
v -0.024231 0.624038 0.024231
v -0.013114 0.624038 0.031659
v -0.000000 0.624038 0.034267
v 0.013114 0.624038 0.031659
v 0.024231 0.624038 0.024231
v 0.031659 0.624038 0.013114
v 0.034267 0.624038 -0.000000
v 0.031659 0.780092 -0.013114
v 0.024231 0.780092 -0.024231
v -0.000000 0.782451 -0.000000
v 0.013114 0.780092 -0.031659
v 0.000000 0.780092 -0.034267
v -0.013113 0.780092 -0.031659
v -0.024231 0.780092 -0.024231
v -0.031659 0.780092 -0.013114
v -0.034267 0.780092 -0.000000
v -0.031659 0.780092 0.013113
v -0.024231 0.780092 0.024231
v -0.013114 0.780092 0.031659
v -0.000000 0.780092 0.034267
v 0.013114 0.780092 0.031659
v 0.024231 0.780092 0.024231
v 0.031659 0.780092 0.013114
v 0.034267 0.780092 -0.000000
vt 0.976841 0.055218
vt 0.939009 0.018991
vt 0.187407 0.541458
vt 0.141648 0.541438
vt 0.890194 0.000000
vt 0.232834 0.541477
vt 0.837827 0.001135
vt 0.278055 0.541496
vt 0.789880 0.022224
vt 0.323056 0.541516
vt 0.753654 0.060056
vt 0.368153 0.541535
vt 0.734663 0.108871
vt 0.413158 0.541555
vt 0.735798 0.161238
vt 0.458167 0.541574
vt 0.756887 0.209185
vt 0.503263 0.541593
vt 0.794719 0.245411
vt 0.548509 0.541613
vt 0.843534 0.264402
vt 0.593989 0.541632
vt 0.895901 0.263267
vt 0.639839 0.541652
vt 0.943848 0.242178
vt 0.686232 0.541672
vt 0.980074 0.204347
vt 0.000000 0.541377
vt 0.999065 0.155531
vt 0.048339 0.541398
vt 0.997930 0.103164
vt 0.095385 0.541418
vt 0.866864 0.132201
vt 0.998423 0.498557
vt 0.801693 0.457507
vt 0.956021 0.499187
vt 0.818218 0.457428
vt 0.834744 0.457349
vt 0.851269 0.457269
vt 0.867795 0.457190
vt 0.884321 0.457110
vt 0.900846 0.457031
vt 0.917372 0.456951
vt 0.933898 0.456872
vt 0.950423 0.456792
vt 0.966949 0.456713
vt 0.983474 0.456633
vt 0.735590 0.457825
vt 0.752115 0.457746
vt 0.768641 0.457666
vt 0.187068 0.591349
vt 0.141810 0.591320
vt 0.232367 0.591358
vt 0.277472 0.591368
vt 0.322658 0.591378
vt 0.367617 0.591350
vt 0.412622 0.591322
vt 0.458181 0.591332
vt 0.503152 0.591341
vt 0.548571 0.591351
vt 0.593943 0.591490
vt 0.640355 0.591629
vt 0.687490 0.591639
vt 0.734473 0.591649
vt 0.048298 0.591281
vt 0.095547 0.591291
vt 0.141993 0.746010
vt 0.095731 0.745972
vt 0.048279 0.745972
vt 0.000063 0.745972
vt 0.688770 0.746413
vt 0.640891 0.746413
vt 0.593920 0.746155
vt 0.548655 0.745897
vt 0.503065 0.745897
vt 0.458217 0.745897
vt 0.412109 0.745898
vt 0.367103 0.745973
vt 0.322282 0.746047
vt 0.276911 0.746047
vt 0.231923 0.746047
vt 0.186751 0.746047
vt 0.800765 0.264627
vt 0.784240 0.264706
vt 0.817291 0.264547
vt 0.833816 0.264468
vt 0.850342 0.264388
vt 0.866868 0.264309
vt 0.883393 0.264230
vt 0.899919 0.264150
vt 0.916444 0.264071
vt 0.932970 0.263991
vt 0.949496 0.263912
vt 0.966021 0.263832
vt 0.982547 0.263753
vt 0.734663 0.264944
vt 0.751188 0.264865
vt 0.767714 0.264786
vt 0.095618 0.000041
vt 0.141881 0.000061
vt 0.048572 0.000021
vt 0.733647 0.000315
vt 0.686464 0.000295
vt 0.640072 0.000275
vt 0.594222 0.000255
vt 0.548742 0.000236
vt 0.503495 0.000216
vt 0.458400 0.000197
vt 0.413391 0.000178
vt 0.368386 0.000158
vt 0.323289 0.000139
vt 0.278288 0.000120
vt 0.233066 0.000100
vt 0.187640 0.000081
vt 0.095731 0.825675
vt 0.141993 0.825561
vt 0.048279 0.825675
vt 0.000064 0.825676
vt 0.688770 0.824345
vt 0.640891 0.824345
vt 0.593920 0.825120
vt 0.548655 0.825895
vt 0.503065 0.825896
vt 0.458217 0.825896
vt 0.412109 0.825896
vt 0.367103 0.825672
vt 0.322282 0.825447
vt 0.276911 0.825447
vt 0.231923 0.825447
vt 0.186751 0.825447
vt 0.735552 0.746413
vt 0.735552 0.824345
vt 0.000021 0.591271
vt 0.733414 0.541692
vt 0.000233 0.000000
vt 0.994953 0.482378
vt 0.785167 0.457587
vt 0.985557 0.468759
vt 0.971664 0.459772
vt 0.955390 0.456785
vt 0.939212 0.460254
vt 0.925592 0.469651
vt 0.916605 0.483543
vt 0.913619 0.499818
vt 0.917088 0.515996
vt 0.926484 0.529616
vt 0.940377 0.538603
vt 0.956651 0.541589
vt 0.972830 0.538120
vt 0.986449 0.528723
vt 0.995436 0.514831
vt 0.999073 0.263673
vt 1.000000 0.456554
vn 0.923880 0.000000 -0.382683
vn 0.707107 0.000000 -0.707106
vn 0.707018 0.015896 -0.707017
vn 0.923763 0.015896 -0.382635
vn 0.382684 -0.000000 -0.923879
vn 0.382636 0.015896 -0.923763
vn 0.000001 -0.000000 -1.000000
vn 0.000001 0.015896 -0.999874
vn -0.382683 0.000000 -0.923880
vn -0.382635 0.015896 -0.923763
vn -0.707106 0.000000 -0.707107
vn -0.707017 0.015896 -0.707018
vn -0.923879 0.000000 -0.382684
vn -0.923763 0.015896 -0.382635
vn -1.000000 0.000000 -0.000000
vn -0.999874 0.015896 -0.000000
vn -0.923880 0.000000 0.382683
vn -0.923763 0.015896 0.382635
vn -0.707107 0.000000 0.707107
vn -0.707017 0.015896 0.707017
vn -0.382684 0.000000 0.923879
vn -0.382635 0.015896 0.923763
vn -0.000000 0.000000 1.000000
vn -0.000000 0.015896 0.999874
vn 0.382683 0.000000 0.923880
vn 0.382635 0.015896 0.923763
vn 0.707107 0.000000 0.707107
vn 0.707017 0.015896 0.707018
vn 0.923880 0.000000 0.382684
vn 0.923763 0.015896 0.382635
vn 1.000000 0.000000 0.000000
vn 0.999874 0.015896 0.000000
vn 0.000000 -1.000000 0.000000
vn 0.000000 -1.000000 0.000000
vn 0.000000 -1.000000 0.000000
vn 0.000000 -1.000000 0.000000
vn 0.000000 -1.000000 0.000000
vn 0.000000 -1.000000 0.000000
vn 0.000000 -1.000000 0.000000
vn 0.000000 -1.000000 0.000000
vn 0.000000 -1.000000 0.000000
vn 0.000000 -1.000000 0.000000
vn 0.000000 -1.000000 0.000000
vn 0.000000 -1.000000 0.000000
vn 0.000000 -1.000000 0.000000
vn 0.000000 -1.000000 0.000000
vn 0.000000 -1.000000 0.000000
vn 0.000000 -1.000000 0.000000
vn 0.000000 -1.000000 0.000000
vn 0.063460 0.997638 -0.026287
vn 0.048576 0.997638 -0.048565
vn 0.000000 1.000000 0.000000
vn 0.026283 0.997639 -0.063453
vn -0.000008 0.997638 -0.068689
vn -0.026286 0.997638 -0.063461
vn -0.048565 0.997638 -0.048576
vn -0.063455 0.997639 -0.026284
vn -0.068689 0.997638 0.000010
vn -0.063464 0.997638 0.026281
vn -0.048566 0.997639 0.048564
vn -0.026278 0.997638 0.063464
vn -0.000000 0.997638 0.068690
vn 0.026278 0.997638 0.063464
vn 0.048566 0.997639 0.048566
vn 0.063464 0.997638 0.026277
vn 0.068689 0.997638 -0.000000
vn 0.663948 0.344017 -0.663947
vn 0.867489 0.344017 -0.359326
vn 0.359326 0.344017 -0.867489
vn 0.000001 0.344017 -0.938963
vn -0.359325 0.344017 -0.867489
vn -0.663947 0.344017 -0.663948
vn -0.867489 0.344017 -0.359326
vn -0.938963 0.344017 -0.000000
vn -0.867489 0.344017 0.359326
vn -0.663947 0.344017 0.663947
vn -0.359326 0.344017 0.867489
vn -0.000000 0.344017 0.938963
vn 0.359326 0.344017 0.867489
vn 0.663947 0.344017 0.663947
vn 0.867489 0.344017 0.359326
vn 0.938963 0.344017 0.000000
vn 0.814935 0.471100 -0.337557
vn 0.882080 0.471100 0.000000
vn 0.814935 0.471100 0.337558
vn 0.623725 0.471100 0.623725
vn 0.337558 0.471100 0.814935
vn -0.000000 0.471100 0.882080
vn -0.337558 0.471100 0.814935
vn -0.623725 0.471100 0.623724
vn -0.814935 0.471100 0.337558
vn -0.882080 0.471100 -0.000000
vn -0.814935 0.471100 -0.337558
vn -0.623724 0.471100 -0.623725
vn -0.337557 0.471100 -0.814936
vn 0.000001 0.471100 -0.882080
vn 0.337558 0.471100 -0.814935
vn 0.623725 0.471100 -0.623724
vn 0.536386 0.651598 -0.536386
vn 0.700822 0.651598 -0.290290
vn 0.290290 0.651598 -0.700822
vn 0.000001 0.651598 -0.758564
vn -0.290290 0.651598 -0.700822
vn -0.536386 0.651598 -0.536387
vn -0.700822 0.651598 -0.290291
vn -0.758564 0.651598 -0.000000
vn -0.700822 0.651598 0.290291
vn -0.536386 0.651598 0.536386
vn -0.290291 0.651598 0.700822
vn -0.000000 0.651598 0.758564
vn 0.290291 0.651598 0.700822
vn 0.536386 0.651598 0.536386
vn 0.700822 0.651598 0.290291
vn 0.758564 0.651598 0.000000
vn 0.923880 -0.000000 -0.382681
vn 0.707104 -0.000001 -0.707109
vn 0.707103 -0.000001 -0.707110
vn 0.923880 -0.000000 -0.382682
vn 0.382680 -0.000000 -0.923881
vn 0.382680 -0.000000 -0.923881
vn 0.000004 -0.000000 -1.000000
vn 0.000004 -0.000000 -1.000000
vn -0.382682 -0.000001 -0.923880
vn -0.382682 -0.000001 -0.923880
vn -0.707108 -0.000000 -0.707106
vn -0.707108 -0.000000 -0.707106
vn -0.923879 -0.000000 -0.382684
vn -0.923880 -0.000000 -0.382684
vn -1.000000 0.000000 -0.000001
vn -1.000000 0.000000 -0.000001
vn -0.923879 0.000000 0.382684
vn -0.923879 0.000000 0.382684
vn -0.707107 0.000000 0.707107
vn -0.707107 0.000000 0.707107
vn -0.382684 0.000000 0.923879
vn -0.382684 0.000000 0.923879
vn -0.000000 0.000000 1.000000
vn -0.000000 0.000000 1.000000
vn 0.382684 0.000000 0.923879
vn 0.382684 0.000000 0.923879
vn 0.707107 0.000000 0.707107
vn 0.707107 0.000000 0.707107
vn 0.923879 0.000000 0.382684
vn 0.923879 0.000000 0.382685
vn 1.000000 -0.000000 0.000001
vn 1.000000 -0.000000 0.000001
s 1
g wine_bottle
usemtl initialShadingGroup
f 1/100/1 2/114/2 18/3/3 17/4/4
f 2/114/2 3/113/5 19/6/6 18/3/3
f 3/113/5 4/112/7 20/8/8 19/6/6
f 4/112/7 5/111/9 21/10/10 20/8/8
f 5/111/9 6/110/11 22/12/12 21/10/10
f 6/110/11 7/109/13 23/14/14 22/12/12
f 7/109/13 8/108/15 24/16/16 23/14/14
f 8/108/15 9/107/17 25/18/18 24/16/16
f 9/107/17 10/106/19 26/20/20 25/18/18
f 10/106/19 11/105/21 27/22/22 26/20/20
f 11/105/21 12/104/23 28/24/24 27/22/22
f 12/104/23 13/103/25 29/26/26 28/24/24
f 13/103/25 14/102/27 30/134/28 29/26/26
f 14/135/27 15/101/29 31/30/30 30/28/28
f 15/101/29 16/99/31 32/32/32 31/30/30
f 16/99/31 1/100/1 17/4/4 32/32/32
s 2
f 2/2/33 1/1/34 33/33/35
f 3/5/36 2/2/33 33/33/35
f 4/7/37 3/5/36 33/33/35
f 5/9/38 4/7/37 33/33/35
f 6/11/39 5/9/38 33/33/35
f 7/13/40 6/11/39 33/33/35
f 8/15/41 7/13/40 33/33/35
f 9/17/42 8/15/41 33/33/35
f 10/19/43 9/17/42 33/33/35
f 11/21/44 10/19/43 33/33/35
f 12/23/45 11/21/44 33/33/35
f 13/25/46 12/23/45 33/33/35
f 14/27/47 13/25/46 33/33/35
f 15/29/48 14/27/47 33/33/35
f 16/31/49 15/29/48 33/33/35
f 1/1/34 16/31/49 33/33/35
s 3
f 82/34/50 83/151/51 84/36/52
f 83/151/51 85/150/53 84/36/52
f 85/150/53 86/149/54 84/36/52
f 86/149/54 87/148/55 84/36/52
f 87/148/55 88/147/56 84/36/52
f 88/147/56 89/146/57 84/36/52
f 89/146/57 90/145/58 84/36/52
f 90/145/58 91/144/59 84/36/52
f 91/144/59 92/143/60 84/36/52
f 92/143/60 93/142/61 84/36/52
f 93/142/61 94/141/62 84/36/52
f 94/141/62 95/140/63 84/36/52
f 95/140/63 96/139/64 84/36/52
f 96/139/64 97/138/65 84/36/52
f 97/138/65 98/136/66 84/36/52
f 98/136/66 82/34/50 84/36/52
s 1
f 17/4/4 18/3/3 65/51/67 50/52/68
f 18/3/3 19/6/6 64/53/69 65/51/67
f 19/6/6 20/8/8 63/54/70 64/53/69
f 20/8/8 21/10/10 62/55/71 63/54/70
f 21/10/10 22/12/12 61/56/72 62/55/71
f 22/12/12 23/14/14 60/57/73 61/56/72
f 23/14/14 24/16/16 59/58/74 60/57/73
f 24/16/16 25/18/18 58/59/75 59/58/74
f 25/18/18 26/20/20 57/60/76 58/59/75
f 26/20/20 27/22/22 56/61/77 57/60/76
f 27/22/22 28/24/24 55/62/78 56/61/77
f 28/24/24 29/26/26 54/63/79 55/62/78
f 29/26/26 30/134/28 53/64/80 54/63/79
f 30/28/28 31/30/30 52/65/81 53/133/80
f 31/30/30 32/32/32 51/66/82 52/65/81
f 32/32/32 17/4/4 50/52/68 51/66/82
f 51/66/82 50/52/68 34/67/83 49/68/84
f 52/65/81 51/66/82 49/68/84 48/69/85
f 53/133/80 52/65/81 48/69/85 47/70/86
f 54/63/79 53/64/80 47/131/86 46/71/87
f 55/62/78 54/63/79 46/71/87 45/72/88
f 56/61/77 55/62/78 45/72/88 44/73/89
f 57/60/76 56/61/77 44/73/89 43/74/90
f 58/59/75 57/60/76 43/74/90 42/75/91
f 59/58/74 58/59/75 42/75/91 41/76/92
f 60/57/73 59/58/74 41/76/92 40/77/93
f 61/56/72 60/57/73 40/77/93 39/78/94
f 62/55/71 61/56/72 39/78/94 38/79/95
f 63/54/70 62/55/71 38/79/95 37/80/96
f 64/53/69 63/54/70 37/80/96 36/81/97
f 65/51/67 64/53/69 36/81/97 35/82/98
f 50/52/68 65/51/67 35/82/98 34/67/83
f 34/67/83 35/82/98 67/130/99 66/116/100
f 35/82/98 36/81/97 68/129/101 67/130/99
f 36/81/97 37/80/96 69/128/102 68/129/101
f 37/80/96 38/79/95 70/127/103 69/128/102
f 38/79/95 39/78/94 71/126/104 70/127/103
f 39/78/94 40/77/93 72/125/105 71/126/104
f 40/77/93 41/76/92 73/124/106 72/125/105
f 41/76/92 42/75/91 74/123/107 73/124/106
f 42/75/91 43/74/90 75/122/108 74/123/107
f 43/74/90 44/73/89 76/121/109 75/122/108
f 44/73/89 45/72/88 77/120/110 76/121/109
f 45/72/88 46/71/87 78/119/111 77/120/110
f 46/71/87 47/131/86 79/132/112 78/119/111
f 47/70/86 48/69/85 80/117/113 79/118/112
f 48/69/85 49/68/84 81/115/114 80/117/113
f 49/68/84 34/67/83 66/116/100 81/115/114
s 4
f 66/84/115 67/83/116 83/35/117 82/137/118
f 67/83/116 68/85/119 85/37/120 83/35/117
f 68/85/119 69/86/121 86/38/122 85/37/120
f 69/86/121 70/87/123 87/39/124 86/38/122
f 70/87/123 71/88/125 88/40/126 87/39/124
f 71/88/125 72/89/127 89/41/128 88/40/126
f 72/89/127 73/90/129 90/42/130 89/41/128
f 73/90/129 74/91/131 91/43/132 90/42/130
f 74/91/131 75/92/133 92/44/134 91/43/132
f 75/92/133 76/93/135 93/45/136 92/44/134
f 76/93/135 77/94/137 94/46/138 93/45/136
f 77/94/137 78/95/139 95/47/140 94/46/138
f 78/95/139 79/152/141 96/153/142 95/47/140
f 79/96/141 80/97/143 97/49/144 96/48/142
f 80/97/143 81/98/145 98/50/146 97/49/144
f 81/98/145 66/84/115 82/137/118 98/50/146
