# This file uses centimeters as units for non-parametric coordinates.

mtllib Cigarette_Box_UVd.mtl
g default
v 0.037444 -0.010092 -0.022078
v 0.037444 -0.013133 -0.025511
v 0.037444 -0.017421 -0.027137
v 0.037444 -0.021973 -0.026584
v 0.037444 -0.025747 -0.023979
v 0.037444 -0.027878 -0.019919
v 0.037444 -0.027878 -0.015333
v 0.037444 -0.025747 -0.011273
v 0.037444 -0.021973 -0.008668
v 0.037444 -0.017421 -0.008115
v 0.037444 -0.013133 -0.009741
v 0.037444 -0.010092 -0.013173
v 0.037444 -0.008995 -0.017626
v -0.137871 -0.010092 -0.022078
v -0.137871 -0.013133 -0.025511
v -0.137871 -0.017421 -0.027137
v -0.137871 -0.021973 -0.026584
v -0.137871 -0.025747 -0.023979
v -0.137871 -0.027878 -0.019919
v -0.137871 -0.027878 -0.015333
v -0.137871 -0.025747 -0.011273
v -0.137871 -0.021973 -0.008668
v -0.137871 -0.017421 -0.008115
v -0.137871 -0.013133 -0.009741
v -0.137871 -0.010092 -0.013173
v -0.137871 -0.008995 -0.017626
v 0.037444 -0.018576 -0.017626
v -0.137871 -0.018576 -0.017626
v 0.037444 0.004260 -0.031433
v 0.037444 0.001219 -0.034865
v 0.037444 -0.003069 -0.036491
v 0.037444 -0.007621 -0.035939
v 0.037444 -0.011395 -0.033334
v 0.037444 -0.013526 -0.029273
v 0.037444 -0.013526 -0.024687
v 0.037444 -0.011395 -0.020627
v 0.037444 -0.007621 -0.018022
v 0.037444 -0.003069 -0.017469
v 0.037444 0.001219 -0.019095
v 0.037444 0.004260 -0.022528
v 0.037444 0.005357 -0.026980
v -0.137871 0.004260 -0.031433
v -0.137871 0.001219 -0.034865
v -0.137871 -0.003069 -0.036491
v -0.137871 -0.007621 -0.035939
v -0.137871 -0.011395 -0.033334
v -0.137871 -0.013526 -0.029273
v -0.137871 -0.013526 -0.024687
v -0.137871 -0.011395 -0.020627
v -0.137871 -0.007621 -0.018022
v -0.137871 -0.003069 -0.017469
v -0.137871 0.001219 -0.019095
v -0.137871 0.004260 -0.022528
v -0.137871 0.005357 -0.026980
v 0.037444 -0.004224 -0.026980
v -0.137871 -0.004224 -0.026980
v 0.003832 -0.010092 -0.043640
v 0.003832 -0.013133 -0.047072
v 0.003832 -0.017421 -0.048699
v 0.003832 -0.021973 -0.048146
v 0.003832 -0.025747 -0.045541
v 0.003832 -0.027878 -0.041480
v 0.003832 -0.027878 -0.036895
v 0.003832 -0.025747 -0.032834
v 0.003832 -0.021973 -0.030229
v 0.003832 -0.017421 -0.029677
v 0.003832 -0.013133 -0.031303
v 0.003832 -0.010092 -0.034735
v 0.003832 -0.008995 -0.039188
v -0.171484 -0.010092 -0.043640
v -0.171484 -0.013133 -0.047072
v -0.171484 -0.017421 -0.048699
v -0.171484 -0.021973 -0.048146
v -0.171484 -0.025747 -0.045541
v -0.171484 -0.027878 -0.041480
v -0.171484 -0.027878 -0.036895
v -0.171484 -0.025747 -0.032834
v -0.171484 -0.021973 -0.030229
v -0.171484 -0.017421 -0.029677
v -0.171484 -0.013133 -0.031303
v -0.171484 -0.010092 -0.034735
v -0.171484 -0.008995 -0.039188
v 0.003832 -0.018576 -0.039188
v -0.171484 -0.018576 -0.039188
v -0.171372 -0.081041 0.092524
v -0.143963 -0.034830 0.092524
v -0.238896 -0.049262 0.092524
v -0.198496 0.018582 0.092524
v -0.238896 -0.049262 -0.092524
v -0.198496 0.018582 -0.092524
v -0.171372 -0.081041 -0.092524
v -0.143963 -0.034830 -0.092524
v -0.148631 -0.030257 -0.085861
v -0.148631 -0.030257 0.085861
v -0.193828 0.014010 -0.085861
v -0.193828 0.014010 0.085861
v -0.173658 -0.075554 -0.085861
v -0.173658 -0.075554 0.085861
v -0.230060 -0.049758 -0.085861
v -0.230060 -0.049758 0.085861
v -0.144223 -0.034088 0.092523
v 0.087165 -0.034088 0.092523
v -0.144223 0.034088 0.092523
v 0.087165 0.034088 0.092523
v -0.144223 0.034088 -0.092523
v 0.087165 0.034088 -0.092523
v -0.144223 -0.034088 -0.092523
v 0.087165 -0.034088 -0.092523
v -0.144223 -0.028427 -0.087191
v -0.144223 -0.028427 0.087191
v -0.144223 0.028427 0.087191
v -0.144223 0.028427 -0.087191
v 0.078490 -0.028427 -0.087191
v 0.078490 -0.028427 0.087191
v 0.078490 0.028427 0.087191
v 0.078490 0.028427 -0.087191
vt 0.018654 0.002057
vt 0.022501 0.006400
vt 0.011769 0.012033
vt 0.023890 0.012033
vt 0.013230 0.000000
vt 0.022501 0.017666
vt 0.007471 0.000699
vt 0.018654 0.022008
vt 0.002696 0.003995
vt 0.013230 0.024065
vt 0.000000 0.009132
vt 0.007471 0.023366
vt 0.000000 0.014933
vt 0.002696 0.020070
vt 0.050099 0.017666
vt 0.046252 0.022008
vt 0.039367 0.012033
vt 0.040828 0.024065
vt 0.051488 0.012033
vt 0.035068 0.023366
vt 0.050099 0.006400
vt 0.030294 0.020070
vt 0.046252 0.002057
vt 0.027598 0.014933
vt 0.040828 0.000000
vt 0.027598 0.009132
vt 0.035068 0.000699
vt 0.030294 0.003995
vt 0.073850 0.002057
vt 0.077697 0.006400
vt 0.066964 0.012033
vt 0.079085 0.012033
vt 0.068425 0.000000
vt 0.077697 0.017666
vt 0.062666 0.000699
vt 0.073850 0.022008
vt 0.057892 0.003995
vt 0.068425 0.024065
vt 0.055196 0.009132
vt 0.062666 0.023366
vt 0.055196 0.014933
vt 0.057892 0.020070
vt 0.105295 0.017666
vt 0.101448 0.022008
vt 0.094562 0.012033
vt 0.096023 0.024065
vt 0.106683 0.012033
vt 0.090264 0.023366
vt 0.105295 0.006400
vt 0.085490 0.020070
vt 0.101448 0.002057
vt 0.082793 0.014933
vt 0.096023 0.000000
vt 0.082793 0.009132
vt 0.090264 0.000699
vt 0.085490 0.003995
vt 0.156643 0.002057
vt 0.160490 0.006400
vt 0.149758 0.012033
vt 0.161879 0.012033
vt 0.151219 0.000000
vt 0.160490 0.017666
vt 0.145460 0.000699
vt 0.156643 0.022008
vt 0.140685 0.003995
vt 0.151219 0.024065
vt 0.137989 0.009132
vt 0.145460 0.023366
vt 0.137989 0.014933
vt 0.140685 0.020070
vt 0.132893 0.017666
vt 0.129045 0.022008
vt 0.122160 0.012033
vt 0.123621 0.024065
vt 0.134281 0.012033
vt 0.117862 0.023366
vt 0.132893 0.006400
vt 0.113087 0.020070
vt 0.129045 0.002057
vt 0.110391 0.014933
vt 0.123621 0.000000
vt 0.110391 0.009132
vt 0.117862 0.000699
vt 0.113087 0.003995
vt 0.901410 0.787398
vt 0.684173 0.784832
vt 0.684946 0.719366
vt 0.902183 0.721932
vt 0.686969 0.548126
vt 0.556555 0.397968
vt 0.903110 0.643473
vt 0.685873 0.640907
vt 0.895127 0.277214
vt 0.561779 0.387380
vt 0.593697 0.478523
vt 0.583009 0.473507
vt 0.963135 0.477890
vt 0.973806 0.472838
vt 0.320628 0.000005
vt 0.554737 0.000170
vt 0.554677 0.086423
vt 0.320568 0.086258
vt 0.292546 0.465384
vt 0.513164 0.465384
vt 0.513164 0.537312
vt 0.292546 0.537313
vt 0.554410 0.465412
vt 0.320301 0.465247
vt 0.327052 0.458090
vt 0.547670 0.458245
vt 0.320362 0.378994
vt 0.327102 0.386162
vt 0.554471 0.379159
vt 0.547720 0.386317
vt 0.754634 0.000005
vt 0.760168 0.000005
vt 0.760168 0.238948
vt 0.754634 0.238948
vt 0.766418 0.000005
vt 0.766418 0.238948
vt 0.751084 0.000005
vt 0.751084 0.238947
vt 0.771952 0.000005
vt 0.771952 0.238948
vt 0.775502 0.000005
vt 0.775502 0.238947
vt 0.722221 0.000005
vt 0.728289 0.000005
vt 0.728289 0.238948
vt 0.722221 0.238947
vt 0.734357 0.000005
vt 0.734357 0.238947
vt 0.717543 0.000005
vt 0.717543 0.238948
vt 0.739035 0.000005
vt 0.739035 0.238948
vt 0.828228 0.000005
vt 0.833762 0.000005
vt 0.833762 0.238948
vt 0.828228 0.238948
vt 0.840012 0.000005
vt 0.840012 0.238948
vt 0.824678 0.000005
vt 0.824678 0.238948
vt 0.845546 0.000005
vt 0.845546 0.238948
vt 0.849097 0.000005
vt 0.849097 0.238948
vt 0.795815 0.000005
vt 0.801883 0.000005
vt 0.801883 0.238948
vt 0.795815 0.238947
vt 0.807951 0.000005
vt 0.807951 0.238947
vt 0.791137 0.000005
vt 0.791137 0.238948
vt 0.812630 0.000005
vt 0.812630 0.238948
vt 0.681040 0.000005
vt 0.686574 0.000005
vt 0.686574 0.238947
vt 0.681040 0.238947
vt 0.692824 0.000005
vt 0.692824 0.238947
vt 0.677489 0.000005
vt 0.677490 0.238947
vt 0.698358 0.000005
vt 0.698358 0.238947
vt 0.701908 0.000005
vt 0.701908 0.238947
vt 0.648627 0.000005
vt 0.654695 0.000005
vt 0.654695 0.238947
vt 0.648627 0.238947
vt 0.660763 0.000005
vt 0.660763 0.238947
vt 0.643948 0.000005
vt 0.643948 0.238947
vt 0.665441 0.000005
vt 0.665441 0.238947
vt 0.895460 0.471526
vt 0.661349 0.471927
vt 0.661187 0.377512
vt 0.895298 0.377111
vt 0.895577 0.539499
vt 0.661466 0.539900
vt 0.000000 0.378769
vt 0.000206 0.086033
vt 0.234315 0.086197
vt 0.234109 0.378934
vt 0.220618 0.819074
vt 0.000000 0.819074
vt 0.000000 0.537313
vt 0.220618 0.537312
vt 0.513164 0.819074
vt 0.292546 0.819074
vt 0.744879 0.000005
vt 0.744879 0.238948
vt 0.781707 0.000005
vt 0.781707 0.238947
vt 0.787550 0.000005
vt 0.787551 0.238948
vt 0.818473 0.000005
vt 0.818473 0.238948
vt 0.855301 0.000005
vt 0.855301 0.238948
vt 0.861145 0.000005
vt 0.861145 0.238948
vt 0.671285 0.000005
vt 0.671285 0.238947
vt 0.708113 0.000005
vt 0.708113 0.238947
vt 0.713956 0.000005
vt 0.713957 0.238947
vt 0.994740 0.386638
vt 0.619609 0.723554
vt 0.593352 0.647946
vt 0.995438 0.652695
vt 0.967403 0.727662
vt 0.640930 0.086483
vt 0.640724 0.379220
vt 0.585092 0.819073
vt 0.585091 0.537312
vt 0.887161 0.547781
vt 0.669909 0.548153
vt 0.661016 0.277615
vt 0.904206 0.550691
vt 0.886684 0.268961
vt 0.669432 0.269333
vt 1.000000 0.397208
vn 0.000000 0.885454 -0.464727
vn 0.000000 0.568066 -0.822983
vn 0.000000 0.568065 -0.822984
vn 0.000000 0.885454 -0.464727
vn -0.000000 0.120537 -0.992709
vn -0.000000 0.120537 -0.992709
vn 0.000000 -0.354609 -0.935015
vn 0.000000 -0.354609 -0.935015
vn 0.000000 -0.748511 -0.663122
vn 0.000000 -0.748512 -0.663121
vn -0.000000 -0.970943 -0.239313
vn -0.000000 -0.970942 -0.239313
vn -0.000000 -0.970942 0.239315
vn -0.000000 -0.970942 0.239314
vn 0.000000 -0.748512 0.663122
vn 0.000000 -0.748512 0.663122
vn 0.000000 -0.354608 0.935015
vn 0.000000 -0.354609 0.935015
vn -0.000000 0.120537 0.992709
vn -0.000000 0.120537 0.992709
vn 0.000000 0.568063 0.822985
vn 0.000000 0.568063 0.822985
vn 0.000000 0.885454 0.464727
vn 0.000000 0.885454 0.464727
vn 0.000000 1.000000 -0.000000
vn 0.000000 1.000000 0.000000
vn 1.000000 -0.000004 0.000000
vn 1.000000 -0.000002 0.000001
vn 1.000000 -0.000001 -0.000000
vn 1.000000 -0.000003 -0.000000
vn 1.000000 0.000002 -0.000002
vn 1.000000 -0.000000 0.000004
vn 1.000000 -0.000004 -0.000001
vn 1.000000 0.000001 -0.000007
vn 1.000000 0.000004 0.000001
vn 1.000000 0.000001 0.000001
vn 1.000000 -0.000003 -0.000000
vn 1.000000 -0.000002 -0.000001
vn 1.000000 -0.000002 -0.000001
vn 1.000000 -0.000002 -0.000000
vn -1.000000 0.000003 -0.000001
vn -1.000000 0.000001 0.000004
vn -1.000000 0.000001 0.000000
vn -1.000000 -0.000005 -0.000000
vn -1.000000 0.000000 -0.000001
vn -1.000000 0.000004 -0.000000
vn -1.000000 0.000003 0.000001
vn -1.000000 0.000004 -0.000001
vn -1.000000 0.000005 0.000000
vn -1.000000 0.000003 0.000001
vn -1.000000 -0.000005 0.000000
vn -1.000000 0.000000 -0.000004
vn -1.000000 0.000004 0.000001
vn -1.000000 -0.000003 0.000000
vn -0.000000 0.885455 -0.464725
vn 0.000000 0.568065 -0.822984
vn 0.000000 0.568064 -0.822984
vn -0.000000 0.885455 -0.464725
vn 0.000000 0.120538 -0.992709
vn 0.000000 0.120538 -0.992709
vn -0.000000 -0.354603 -0.935017
vn -0.000000 -0.354603 -0.935017
vn -0.000000 -0.748512 -0.663122
vn -0.000000 -0.748512 -0.663121
vn -0.000000 -0.970942 -0.239316
vn -0.000000 -0.970942 -0.239316
vn -0.000000 -0.970941 0.239317
vn -0.000000 -0.970942 0.239316
vn -0.000000 -0.748512 0.663122
vn -0.000000 -0.748512 0.663122
vn -0.000000 -0.354609 0.935015
vn -0.000000 -0.354609 0.935015
vn 0.000000 0.120538 0.992709
vn 0.000000 0.120538 0.992709
vn 0.000000 0.568067 0.822982
vn 0.000000 0.568067 0.822983
vn -0.000000 0.885454 0.464726
vn -0.000000 0.885454 0.464726
vn -0.000000 1.000000 -0.000000
vn -0.000000 1.000000 0.000000
vn 1.000000 -0.000003 0.000000
vn 1.000000 -0.000001 0.000001
vn 1.000000 -0.000001 -0.000000
vn 1.000000 -0.000003 -0.000000
vn 1.000000 0.000002 -0.000002
vn 1.000000 -0.000000 0.000004
vn 1.000000 -0.000004 -0.000001
vn 1.000000 0.000001 -0.000007
vn 1.000000 0.000004 0.000001
vn 1.000000 0.000001 0.000001
vn 1.000000 -0.000003 -0.000000
vn 1.000000 -0.000003 -0.000001
vn 1.000000 -0.000002 -0.000001
vn 1.000000 -0.000002 0.000000
vn -1.000000 0.000003 -0.000001
vn -1.000000 0.000001 0.000004
vn -1.000000 0.000001 0.000000
vn -1.000000 -0.000003 -0.000000
vn -1.000000 0.000003 -0.000001
vn -1.000000 0.000004 -0.000000
vn -1.000000 0.000004 0.000001
vn -1.000000 0.000004 -0.000001
vn -1.000000 0.000004 0.000000
vn -1.000000 0.000003 0.000001
vn -1.000000 -0.000005 0.000000
vn -1.000000 -0.000000 -0.000004
vn -1.000000 0.000003 0.000001
vn -1.000000 -0.000004 0.000000
vn 0.000000 0.885455 -0.464726
vn 0.000000 0.568061 -0.822986
vn 0.000000 0.568061 -0.822986
vn 0.000000 0.885454 -0.464727
vn -0.000000 0.120537 -0.992709
vn -0.000000 0.120537 -0.992709
vn 0.000000 -0.354603 -0.935017
vn 0.000000 -0.354603 -0.935017
vn 0.000000 -0.748513 -0.663120
vn 0.000000 -0.748513 -0.663120
vn -0.000000 -0.970943 -0.239312
vn -0.000000 -0.970943 -0.239313
vn -0.000000 -0.970943 0.239312
vn -0.000000 -0.970943 0.239313
vn 0.000000 -0.748513 0.663120
vn 0.000000 -0.748513 0.663120
vn 0.000000 -0.354602 0.935017
vn 0.000000 -0.354603 0.935017
vn -0.000000 0.120537 0.992709
vn -0.000000 0.120537 0.992709
vn 0.000000 0.568063 0.822985
vn 0.000000 0.568064 0.822985
vn 0.000000 0.885455 0.464725
vn 0.000000 0.885454 0.464726
vn 0.000000 1.000000 0.000000
vn 0.000000 1.000000 -0.000000
vn 1.000000 -0.000004 0.000001
vn 1.000000 -0.000002 0.000001
vn 1.000000 -0.000000 -0.000000
vn 1.000000 -0.000003 -0.000000
vn 1.000000 0.000002 -0.000001
vn 1.000000 0.000004 -0.000001
vn 1.000000 0.000003 0.000001
vn 1.000000 0.000002 -0.000001
vn 1.000000 0.000004 0.000001
vn 1.000000 0.000001 0.000001
vn 1.000000 -0.000003 -0.000001
vn 1.000000 -0.000003 -0.000001
vn 1.000000 -0.000002 -0.000001
vn 1.000000 -0.000003 0.000000
vn -1.000000 0.000003 0.000007
vn -1.000000 -0.000004 0.000001
vn -1.000000 0.000002 0.000000
vn -1.000000 -0.000003 -0.000000
vn -1.000000 0.000005 -0.000001
vn -1.000000 0.000005 -0.000000
vn -1.000000 0.000005 0.000001
vn -1.000000 0.000004 -0.000001
vn -1.000000 0.000005 0.000000
vn -1.000000 0.000005 0.000001
vn -1.000000 0.000000 0.000000
vn -1.000000 -0.000005 -0.000001
vn -1.000000 0.000000 -0.000007
vn -1.000000 0.000004 0.000000
vn 0.000000 0.000000 1.000000
vn 0.000000 0.000000 1.000000
vn 0.000000 0.000000 1.000000
vn 0.000000 0.000000 1.000000
vn -0.859197 0.511645 0.000000
vn -0.859197 0.511645 0.000000
vn -0.859197 0.511645 0.000000
vn -0.859197 0.511645 0.000000
vn 0.000000 0.000000 -1.000000
vn 0.000000 0.000000 -1.000000
vn 0.000000 0.000000 -1.000000
vn 0.000000 0.000000 -1.000000
vn 0.860089 -0.510144 0.000000
vn 0.860089 -0.510144 0.000000
vn 0.860089 -0.510144 0.000000
vn 0.860089 -0.510144 0.000000
vn 0.415920 0.909401 0.000000
vn 0.415920 0.909401 0.000000
vn 0.415920 0.909401 0.000000
vn 0.415920 0.909401 0.000000
vn -0.425824 -0.904806 0.000000
vn -0.425824 -0.904806 0.000000
vn -0.425824 -0.904806 0.000000
vn -0.425824 -0.904806 0.000000
vn 0.699720 0.714417 -0.000000
vn 0.699720 0.714417 0.000000
vn 0.699720 0.714417 0.000000
vn 0.699720 0.714417 -0.000000
vn 0.699721 0.714416 0.000000
vn 0.699721 0.714416 0.000000
vn 0.699721 0.714416 -0.000000
vn 0.699721 0.714416 -0.000000
vn -0.875284 0.483610 0.000000
vn -0.875284 0.483610 0.000000
vn -0.875284 0.483610 0.000000
vn -0.875284 0.483610 0.000000
vn 0.000000 0.000000 1.000000
vn 0.000000 0.000000 1.000000
vn 0.000000 0.000000 1.000000
vn 0.000000 0.000000 1.000000
vn 0.869455 -0.494013 0.000000
vn 0.869455 -0.494013 0.000000
vn 0.869455 -0.494013 0.000000
vn 0.869455 -0.494013 0.000000
vn -0.000000 0.000000 -1.000000
vn -0.000000 0.000000 -1.000000
vn -0.000000 0.000000 -1.000000
vn -0.000000 0.000000 -1.000000
vn 0.000000 0.000000 1.000000
vn 0.000000 0.000000 1.000000
vn 0.000000 0.000000 1.000000
vn 0.000000 0.000000 1.000000
vn 0.000000 1.000000 0.000000
vn 0.000000 1.000000 0.000000
vn 0.000000 1.000000 0.000000
vn 0.000000 1.000000 0.000000
vn 0.000000 0.000000 -1.000000
vn 0.000000 0.000000 -1.000000
vn 0.000000 0.000000 -1.000000
vn 0.000000 0.000000 -1.000000
vn 0.000000 -1.000000 0.000000
vn 0.000000 -1.000000 0.000000
vn 0.000000 -1.000000 0.000000
vn 0.000000 -1.000000 0.000000
vn 1.000000 0.000000 0.000000
vn 1.000000 0.000000 0.000000
vn 1.000000 0.000000 0.000000
vn 1.000000 0.000000 0.000000
vn -1.000000 0.000000 0.000000
vn -1.000000 0.000000 0.000000
vn -1.000000 0.000000 0.000000
vn -1.000000 0.000000 0.000000
vn -1.000000 -0.000001 0.000000
vn -1.000000 -0.000001 0.000000
vn -1.000000 -0.000001 0.000000
vn -1.000000 -0.000001 0.000000
vn -1.000000 0.000001 0.000000
vn -1.000000 0.000001 0.000000
vn -1.000000 0.000001 0.000000
vn -1.000000 0.000001 0.000000
vn 0.000000 1.000000 0.000000
vn 0.000000 1.000000 0.000000
vn 0.000000 1.000000 0.000000
vn 0.000000 1.000000 0.000000
vn 0.000000 0.000000 -1.000000
vn 0.000000 0.000000 -1.000000
vn 0.000000 0.000000 -1.000000
vn 0.000000 0.000000 -1.000000
vn 0.000000 -1.000000 0.000000
vn 0.000000 -1.000000 0.000000
vn 0.000000 -1.000000 0.000000
vn 0.000000 -1.000000 0.000000
vn 0.000000 0.000000 1.000000
vn 0.000000 0.000000 1.000000
vn 0.000000 0.000000 1.000000
vn 0.000000 0.000000 1.000000
s 1
g cigrette_boxx
usemtl initialShadingGroup
f 1/131/1 2/135/2 15/136/3 14/132/4
f 2/135/2 3/197/5 16/198/6 15/136/3
f 3/197/5 4/121/7 17/122/8 16/198/6
f 4/121/7 5/115/9 18/118/10 17/122/8
f 5/115/9 6/116/11 19/117/12 18/118/10
f 6/116/11 7/119/13 20/120/14 19/117/12
f 7/119/13 8/123/15 21/124/16 20/120/14
f 8/123/15 9/125/17 22/126/18 21/124/16
f 9/125/17 10/199/19 23/200/20 22/126/18
f 10/199/19 11/201/21 24/202/22 23/200/20
f 11/133/21 12/127/23 25/130/24 24/134/22
f 12/127/23 13/128/25 26/129/26 25/130/24
f 13/128/25 1/131/1 14/132/4 26/129/26
s 2
f 2/1/27 1/2/28 27/3/29
f 3/5/30 2/1/27 27/3/29
f 4/7/31 3/5/30 27/3/29
f 5/9/32 4/7/31 27/3/29
f 6/11/33 5/9/32 27/3/29
f 7/13/34 6/11/33 27/3/29
f 8/14/35 7/13/34 27/3/29
f 9/12/36 8/14/35 27/3/29
f 10/10/37 9/12/36 27/3/29
f 11/8/38 10/10/37 27/3/29
f 12/6/39 11/8/38 27/3/29
f 13/4/40 12/6/39 27/3/29
f 1/2/28 13/4/40 27/3/29
s 3
f 14/15/41 15/16/42 28/17/43
f 15/16/42 16/18/44 28/17/43
f 16/18/44 17/20/45 28/17/43
f 17/20/45 18/22/46 28/17/43
f 18/22/46 19/24/47 28/17/43
f 19/24/47 20/26/48 28/17/43
f 20/26/48 21/28/49 28/17/43
f 21/28/49 22/27/50 28/17/43
f 22/27/50 23/25/51 28/17/43
f 23/25/51 24/23/52 28/17/43
f 24/23/52 25/21/53 28/17/43
f 25/21/53 26/19/54 28/17/43
f 26/19/54 14/15/41 28/17/43
s 4
f 29/153/55 30/157/56 43/158/57 42/154/58
f 30/157/56 31/203/59 44/204/60 43/158/57
f 31/203/59 32/143/61 45/144/62 44/204/60
f 32/143/61 33/137/63 46/140/64 45/144/62
f 33/137/63 34/138/65 47/139/66 46/140/64
f 34/138/65 35/141/67 48/142/68 47/139/66
f 35/141/67 36/145/69 49/146/70 48/142/68
f 36/145/69 37/147/71 50/148/72 49/146/70
f 37/147/71 38/205/73 51/206/74 50/148/72
f 38/205/73 39/207/75 52/208/76 51/206/74
f 39/155/75 40/149/77 53/152/78 52/156/76
f 40/149/77 41/150/79 54/151/80 53/152/78
f 41/150/79 29/153/55 42/154/58 54/151/80
s 5
f 30/29/81 29/30/82 55/31/83
f 31/33/84 30/29/81 55/31/83
f 32/35/85 31/33/84 55/31/83
f 33/37/86 32/35/85 55/31/83
f 34/39/87 33/37/86 55/31/83
f 35/41/88 34/39/87 55/31/83
f 36/42/89 35/41/88 55/31/83
f 37/40/90 36/42/89 55/31/83
f 38/38/91 37/40/90 55/31/83
f 39/36/92 38/38/91 55/31/83
f 40/34/93 39/36/92 55/31/83
f 41/32/94 40/34/93 55/31/83
f 29/30/82 41/32/94 55/31/83
s 6
f 42/43/95 43/44/96 56/45/97
f 43/44/96 44/46/98 56/45/97
f 44/46/98 45/48/99 56/45/97
f 45/48/99 46/50/100 56/45/97
f 46/50/100 47/52/101 56/45/97
f 47/52/101 48/54/102 56/45/97
f 48/54/102 49/56/103 56/45/97
f 49/56/103 50/55/104 56/45/97
f 50/55/104 51/53/105 56/45/97
f 51/53/105 52/51/106 56/45/97
f 52/51/106 53/49/107 56/45/97
f 53/49/107 54/47/108 56/45/97
f 54/47/108 42/43/95 56/45/97
s 7
f 57/175/109 58/179/110 71/180/111 70/176/112
f 58/179/110 59/209/113 72/210/114 71/180/111
f 59/209/113 60/165/115 73/166/116 72/210/114
f 60/165/115 61/159/117 74/162/118 73/166/116
f 61/159/117 62/160/119 75/161/120 74/162/118
f 62/160/119 63/163/121 76/164/122 75/161/120
f 63/163/121 64/167/123 77/168/124 76/164/122
f 64/167/123 65/169/125 78/170/126 77/168/124
f 65/169/125 66/211/127 79/212/128 78/170/126
f 66/211/127 67/213/129 80/214/130 79/212/128
f 67/177/129 68/171/131 81/174/132 80/178/130
f 68/171/131 69/172/133 82/173/134 81/174/132
f 69/172/133 57/175/109 70/176/112 82/173/134
s 8
f 58/57/135 57/58/136 83/59/137
f 59/61/138 58/57/135 83/59/137
f 60/63/139 59/61/138 83/59/137
f 61/65/140 60/63/139 83/59/137
f 62/67/141 61/65/140 83/59/137
f 63/69/142 62/67/141 83/59/137
f 64/70/143 63/69/142 83/59/137
f 65/68/144 64/70/143 83/59/137
f 66/66/145 65/68/144 83/59/137
f 67/64/146 66/66/145 83/59/137
f 68/62/147 67/64/146 83/59/137
f 69/60/148 68/62/147 83/59/137
f 57/58/136 69/60/148 83/59/137
s 9
f 70/71/149 71/72/150 84/73/151
f 71/72/150 72/74/152 84/73/151
f 72/74/152 73/76/153 84/73/151
f 73/76/153 74/78/154 84/73/151
f 74/78/154 75/80/155 84/73/151
f 75/80/155 76/82/156 84/73/151
f 76/82/156 77/84/157 84/73/151
f 77/84/157 78/83/158 84/73/151
f 78/83/158 79/81/159 84/73/151
f 79/81/159 80/79/160 84/73/151
f 80/79/160 81/77/161 84/73/151
f 81/77/161 82/75/162 84/73/151
f 82/75/162 70/71/149 84/73/151
s off
f 85/182/163 86/95/164 88/94/165 87/183/166
f 87/183/167 88/226/168 90/93/169 89/184/170
f 89/184/171 90/215/172 92/97/173 91/181/174
f 91/181/175 92/185/176 86/186/177 85/182/178
f 98/88/179 97/87/180 99/92/181 100/91/182
f 91/181/183 85/182/184 87/183/185 89/184/186
s 10
f 86/186/187 92/185/188 93/224/189 94/225/190
f 92/97/188 90/215/191 95/230/192 93/98/189
f 90/93/191 88/226/193 96/229/194 95/228/192
f 88/94/193 86/95/187 94/96/190 96/90/194
s off
f 94/85/195 93/86/196 97/87/197 98/88/198
f 93/216/199 95/217/200 99/92/201 97/87/202
f 95/89/203 96/227/204 100/91/205 99/92/206
f 96/218/207 94/219/208 98/88/209 100/91/210
f 101/190/211 102/189/212 104/102/213 103/111/214
f 103/111/215 104/102/216 106/101/217 105/113/218
f 105/113/219 106/101/220 108/220/221 107/221/222
f 107/187/223 108/188/224 102/189/225 101/190/226
f 102/99/227 108/100/228 106/101/229 104/102/230
f 113/103/231 114/104/232 115/105/233 116/106/234
s 11
f 107/107/235 101/108/236 110/109/237 109/110/238
f 101/108/236 103/111/239 111/112/240 110/109/237
f 103/111/239 105/113/241 112/114/242 111/112/240
f 105/113/241 107/107/235 109/110/238 112/114/242
s off
f 109/191/243 110/192/244 114/193/245 113/194/246
f 110/222/247 111/195/248 115/105/249 114/223/250
f 111/195/251 112/196/252 116/106/253 115/105/254
f 112/196/255 109/191/256 113/194/257 116/106/258
