# This file uses centimeters as units for non-parametric coordinates.

mtllib Picture_Frame.mtl
g default
v -1.300645 -0.913322 0.136221
v 1.300645 -0.913322 0.136221
v -1.300645 0.913322 0.136221
v 1.300645 0.913322 0.136221
v -1.300645 0.913322 -0.109741
v 1.300645 0.913322 -0.109741
v -1.300645 -0.913322 -0.109741
v 1.300645 -0.913322 -0.109741
v -1.210323 -0.849897 0.109741
v 1.210323 -0.849897 0.109741
v 1.210323 0.849897 0.109741
v -1.210323 0.849897 0.109741
v -1.149807 -0.807402 0.079895
v 1.149807 -0.807402 0.079895
v 1.149807 0.807402 0.079895
v -1.149807 0.807402 0.079895
v -1.149807 -0.807402 0.006099
v 1.149807 -0.807402 0.006099
v 1.149807 0.807402 0.006099
v -1.149807 0.807402 0.006099
vt 0.051494 0.448625
vt 0.000509 0.448827
vt 0.000000 0.051930
vt 0.051107 0.051083
vt 0.603753 0.501259
vt 0.604414 0.450177
vt 0.604034 0.052634
vt 0.604468 0.001626
vt 0.070802 0.065231
vt 0.071140 0.434550
vt 0.084358 0.075616
vt 0.084843 0.424290
vt 0.094467 0.085910
vt 0.094145 0.413283
vt 0.584726 0.436031
vt 0.584387 0.066710
vt 0.571171 0.425646
vt 0.570684 0.076969
vt 0.561061 0.415352
vt 0.561382 0.087976
vt 0.530963 0.501259
vt 1.000000 0.501259
vt 1.000000 0.830620
vt 0.530963 0.830620
vt 0.000000 0.501045
vt 0.530568 0.501045
vt 0.530568 0.873614
vt 0.000000 0.873614
vt 0.051062 0.499634
vt 0.655520 0.449333
vt 0.051770 0.000000
vt 0.655019 0.052436
vn 0.000000 0.000000 1.000000
vn 0.000000 0.000000 1.000000
vn 0.000000 0.000000 1.000000
vn 0.000000 0.000000 1.000000
vn 0.000000 1.000000 0.000000
vn 0.000000 1.000000 0.000000
vn 0.000000 1.000000 0.000000
vn 0.000000 1.000000 0.000000
vn 0.000000 0.000000 -1.000000
vn 0.000000 0.000000 -1.000000
vn 0.000000 0.000000 -1.000000
vn 0.000000 0.000000 -1.000000
vn 0.000000 -1.000000 0.000000
vn 0.000000 -1.000000 0.000000
vn 0.000000 -1.000000 0.000000
vn 0.000000 -1.000000 0.000000
vn 1.000000 0.000000 0.000000
vn 1.000000 0.000000 0.000000
vn 1.000000 0.000000 0.000000
vn 1.000000 0.000000 0.000000
vn -1.000000 0.000000 0.000000
vn -1.000000 0.000000 0.000000
vn -1.000000 0.000000 0.000000
vn -1.000000 0.000000 0.000000
vn 0.142040 0.202277 0.968973
vn -0.142040 0.202277 0.968973
vn -0.170932 0.243421 0.954740
vn 0.170932 0.243421 0.954740
vn -0.142040 -0.202277 0.968973
vn -0.170932 -0.243421 0.954740
vn 0.142040 -0.202277 0.968973
vn 0.170932 -0.243421 0.954740
vn -0.226611 0.322712 0.918969
vn 0.226611 0.322712 0.918969
vn -0.226611 -0.322712 0.918969
vn 0.226611 -0.322712 0.918969
vn 0.000000 1.000000 0.000000
vn 0.000000 1.000000 0.000000
vn 0.000000 1.000000 0.000000
vn 0.000000 1.000000 0.000000
vn -1.000000 0.000000 0.000000
vn -1.000000 0.000000 0.000000
vn -1.000000 0.000000 0.000000
vn -1.000000 0.000000 0.000000
vn 0.000000 -1.000000 0.000000
vn 0.000000 -1.000000 0.000000
vn 0.000000 -1.000000 0.000000
vn 0.000000 -1.000000 0.000000
vn 1.000000 0.000000 0.000000
vn 1.000000 0.000000 0.000000
vn 1.000000 0.000000 0.000000
vn 1.000000 0.000000 0.000000
s off
g picture_frame
usemtl initialShadingGroup
f 17/21/1 18/22/2 19/23/3 20/24/4
f 3/7/5 4/4/6 6/31/7 5/8/8
f 5/25/9 6/26/10 8/27/11 7/28/12
f 7/5/13 8/29/14 2/1/15 1/6/16
f 2/1/17 8/2/18 6/3/19 4/4/20
f 7/30/21 1/6/22 3/7/23 5/32/24
s 1
f 1/6/25 2/1/26 10/10/27 9/15/28
f 2/1/26 4/4/29 11/9/30 10/10/27
f 4/4/29 3/7/31 12/16/32 11/9/30
f 3/7/31 1/6/25 9/15/28 12/16/32
f 9/15/28 10/10/27 14/12/33 13/17/34
f 10/10/27 11/9/30 15/11/35 14/12/33
f 11/9/30 12/16/32 16/18/36 15/11/35
f 12/16/32 9/15/28 13/17/34 16/18/36
s off
f 13/17/37 14/12/38 18/14/39 17/19/40
f 14/12/41 15/11/42 19/13/43 18/14/44
f 15/11/45 16/18/46 20/20/47 19/13/48
f 16/18/49 13/17/50 17/19/51 20/20/52
